<svg xmlns="http://www.w3.org/2000/svg" viewBox="0 0 200 220" aria-hidden="true">
  <g fill="none" stroke="currentColor" stroke-width="2.2" stroke-linecap="round" stroke-linejoin="round">
    <!-- stems -->
    <path d="M100 200 L100 110"/>
    <path d="M100 200 Q 80 160 70 100"/>
    <path d="M100 200 Q 120 160 130 100"/>
    <path d="M100 200 Q 90 150 60 130"/>
    <path d="M100 200 Q 110 150 140 130"/>
    <!-- center flower -->
    <circle cx="100" cy="90" r="14"/>
    <path d="M100 76 Q 90 70 88 80 Q 92 88 100 90"/>
    <path d="M100 76 Q 110 70 112 80 Q 108 88 100 90"/>
    <path d="M86 90 Q 80 95 86 102 Q 95 100 100 90"/>
    <path d="M114 90 Q 120 95 114 102 Q 105 100 100 90"/>
    <circle cx="100" cy="90" r="3" fill="currentColor"/>
    <!-- side flowers -->
    <circle cx="68" cy="92" r="9"/>
    <circle cx="68" cy="92" r="2" fill="currentColor"/>
    <circle cx="132" cy="92" r="9"/>
    <circle cx="132" cy="92" r="2" fill="currentColor"/>
    <circle cx="58" cy="124" r="8"/>
    <circle cx="142" cy="124" r="8"/>
    <!-- leaves -->
    <path d="M85 150 Q 75 140 80 132 Q 92 140 85 150 Z" stroke-width="1.6"/>
    <path d="M115 150 Q 125 140 120 132 Q 108 140 115 150 Z" stroke-width="1.6"/>
    <!-- ribbon wrap -->
    <path d="M82 200 Q 100 196 118 200 L120 212 Q 100 208 80 212 Z"/>
    <path d="M82 200 L80 212"/>
    <path d="M118 200 L120 212"/>
  </g>
</svg>
