<svg xmlns="http://www.w3.org/2000/svg" viewBox="0 0 240 200" aria-hidden="true">
  <g fill="none" stroke="currentColor" stroke-width="2.2" stroke-linecap="round" stroke-linejoin="round">
    <!-- ground line -->
    <path d="M10 180 L230 180"/>
    <!-- greenhouse frame -->
    <path d="M40 180 L40 110 Q 40 60 120 50 Q 200 60 200 110 L200 180 Z"/>
    <!-- glass panels -->
    <path d="M40 110 L200 110"/>
    <path d="M120 50 L120 180"/>
    <path d="M80 60 L80 180"/>
    <path d="M160 60 L160 180"/>
    <path d="M40 145 L200 145"/>
    <!-- door -->
    <path d="M105 180 L105 145 L135 145 L135 180"/>
    <circle cx="128" cy="163" r="1.6" fill="currentColor"/>
    <!-- plants inside -->
    <g transform="translate(60 175)"><path d="M0 0 L0 -14"/><path d="M0 -10 Q -6 -12 -8 -18"/><path d="M0 -10 Q 6 -12 8 -18"/></g>
    <g transform="translate(170 175)"><path d="M0 0 L0 -16"/><path d="M0 -12 Q -7 -14 -9 -20"/><path d="M0 -12 Q 7 -14 9 -20"/></g>
    <!-- sun -->
    <circle cx="200" cy="30" r="10"/>
    <path d="M200 12 L200 6 M218 30 L224 30 M213 17 L218 12"/>
  </g>
</svg>
