<svg xmlns="http://www.w3.org/2000/svg" viewBox="0 0 200 200" width="100%" height="100%">
  <g fill="none" stroke="#5F6E26" stroke-width="2.5" stroke-linecap="round" stroke-linejoin="round">
    <!-- Left glove -->
    <!-- Cuff -->
    <path d="M 22 130 L 22 175 L 75 175 L 75 130"/>
    <path d="M 22 175 C 35 178, 60 178, 75 175"/>
    <!-- Cuff hatching -->
    <path d="M 28 138 L 32 145"/>
    <path d="M 38 138 L 42 145"/>
    <path d="M 48 138 L 52 145"/>
    <path d="M 58 138 L 62 145"/>
    <path d="M 30 152 L 34 159"/>
    <path d="M 42 152 L 46 159"/>
    <path d="M 54 152 L 58 159"/>
    <path d="M 28 165 L 32 172"/>
    <path d="M 42 165 L 46 172"/>
    <path d="M 56 165 L 60 172"/>
    <!-- Glove main -->
    <path d="M 22 130 C 18 110, 18 85, 22 65 C 25 55, 30 50, 35 55 L 35 95"/>
    <!-- Thumb -->
    <path d="M 35 95 C 40 80, 50 75, 55 80 C 58 88, 55 95, 48 100 L 48 115"/>
    <!-- Fingers -->
    <path d="M 35 65 C 32 45, 38 32, 45 32 C 50 35, 50 50, 48 65"/>
    <path d="M 48 65 C 48 42, 55 28, 62 28 C 67 32, 65 50, 62 65"/>
    <path d="M 62 65 C 62 45, 68 32, 73 35 C 76 42, 72 55, 70 65"/>
    <path d="M 70 65 C 72 50, 78 42, 82 48 C 82 58, 78 68, 75 75 L 75 130"/>
    
    <!-- Right glove -->
    <!-- Cuff -->
    <path d="M 100 130 L 100 175 L 153 175 L 153 130"/>
    <path d="M 100 175 C 113 178, 138 178, 153 175"/>
    <!-- Cuff hatching -->
    <path d="M 106 138 L 110 145"/>
    <path d="M 116 138 L 120 145"/>
    <path d="M 126 138 L 130 145"/>
    <path d="M 136 138 L 140 145"/>
    <path d="M 108 152 L 112 159"/>
    <path d="M 120 152 L 124 159"/>
    <path d="M 132 152 L 136 159"/>
    <path d="M 106 165 L 110 172"/>
    <path d="M 120 165 L 124 172"/>
    <path d="M 134 165 L 138 172"/>
    <!-- Glove main mirrored -->
    <path d="M 153 130 C 157 110, 157 85, 153 65 C 150 55, 145 50, 140 55 L 140 95"/>
    <!-- Thumb -->
    <path d="M 140 95 C 135 80, 125 75, 120 80 C 117 88, 120 95, 127 100 L 127 115"/>
    <!-- Fingers -->
    <path d="M 140 65 C 143 45, 137 32, 130 32 C 125 35, 125 50, 127 65"/>
    <path d="M 127 65 C 127 42, 120 28, 113 28 C 108 32, 110 50, 113 65"/>
    <path d="M 113 65 C 113 45, 107 32, 102 35 C 99 42, 103 55, 105 65"/>
    <path d="M 105 65 C 103 50, 97 42, 93 48 C 93 58, 97 68, 100 75 L 100 130"/>
  </g>
</svg>