<svg xmlns="http://www.w3.org/2000/svg" viewBox="0 0 200 200" width="100%" height="100%">
  <g fill="none" stroke="#5F6E26" stroke-width="2.5" stroke-linecap="round" stroke-linejoin="round">
    <!-- Handle -->
    <path d="M 88 25 L 112 25 L 112 105 L 88 105 Z"/>
    <path d="M 88 25 C 95 22, 105 22, 112 25"/>
    <!-- Handle grip rings -->
    <path d="M 88 45 L 112 45"/>
    <path d="M 88 65 L 112 65"/>
    <path d="M 88 85 L 112 85"/>
    <!-- Ferrule/connection -->
    <path d="M 85 105 L 115 105 L 113 115 L 87 115 Z"/>
    <!-- Three tines -->
    <path d="M 88 115 C 80 130, 72 150, 65 170"/>
    <path d="M 100 115 C 100 135, 100 158, 100 175"/>
    <path d="M 112 115 C 120 130, 128 150, 135 170"/>
    <!-- Tines tips -->
    <path d="M 60 175 C 62 178, 67 178, 65 175"/>
    <path d="M 95 178 C 97 182, 103 182, 105 178"/>
    <path d="M 130 175 C 132 178, 137 178, 135 175"/>
  </g>
</svg>