<svg xmlns="http://www.w3.org/2000/svg" viewBox="0 0 200 200" width="100%" height="100%">
  <g fill="none" stroke="#5F6E26" stroke-width="2.5" stroke-linecap="round" stroke-linejoin="round">
    <!-- Clothesline -->
    <path d="M 10 35 C 50 38, 150 38, 195 35"/>
    <!-- Left clothespin -->
    <path d="M 65 28 L 65 45"/>
    <path d="M 70 28 L 70 45"/>
    <path d="M 60 32 L 75 32"/>
    <!-- Right clothespin -->
    <path d="M 130 28 L 130 45"/>
    <path d="M 135 28 L 135 45"/>
    <path d="M 125 32 L 140 32"/>
    
    <!-- Left glove (hanging upside down) -->
    <!-- Cuff at top (where it's pinned) -->
    <path d="M 55 45 L 55 75 L 80 75 L 80 45 Z"/>
    <path d="M 55 45 C 62 47, 73 47, 80 45"/>
    <!-- Cuff hatching -->
    <path d="M 58 52 L 62 58"/>
    <path d="M 68 52 L 72 58"/>
    <path d="M 60 65 L 64 70"/>
    <path d="M 70 65 L 74 70"/>
    <!-- Glove main body -->
    <path d="M 55 75 C 50 90, 50 110, 53 130 C 55 138, 60 142, 65 138 L 65 100"/>
    <path d="M 80 75 C 85 90, 85 110, 82 130 C 80 138, 75 142, 70 138 L 70 100"/>
    <!-- Fingers -->
    <path d="M 53 130 C 50 145, 52 158, 58 158 C 62 155, 62 145, 60 135"/>
    <path d="M 60 135 C 58 150, 60 162, 65 162 C 68 158, 68 148, 65 138"/>
    <path d="M 70 138 C 67 152, 70 162, 75 160 C 78 155, 76 145, 73 135"/>
    <path d="M 73 135 C 75 148, 80 158, 85 155 C 87 148, 85 138, 82 130"/>
    <!-- Thumb -->
    <path d="M 80 105 C 88 108, 95 113, 96 122 C 90 125, 85 122, 82 115"/>
    
    <!-- Right glove -->
    <path d="M 120 45 L 120 75 L 145 75 L 145 45 Z"/>
    <path d="M 120 45 C 127 47, 138 47, 145 45"/>
    <!-- Cuff hatching -->
    <path d="M 123 52 L 127 58"/>
    <path d="M 133 52 L 137 58"/>
    <path d="M 125 65 L 129 70"/>
    <path d="M 135 65 L 139 70"/>
    <!-- Glove body -->
    <path d="M 120 75 C 115 90, 115 110, 118 130 C 120 138, 125 142, 130 138 L 130 100"/>
    <path d="M 145 75 C 150 90, 150 110, 147 130 C 145 138, 140 142, 135 138 L 135 100"/>
    <!-- Fingers -->
    <path d="M 118 130 C 115 145, 117 158, 123 158 C 127 155, 127 145, 125 135"/>
    <path d="M 125 135 C 123 150, 125 162, 130 162 C 133 158, 133 148, 130 138"/>
    <path d="M 135 138 C 132 152, 135 162, 140 160 C 143 155, 141 145, 138 135"/>
    <path d="M 138 135 C 140 148, 145 158, 150 155 C 152 148, 150 138, 147 130"/>
    <!-- Thumb -->
    <path d="M 145 105 C 153 108, 160 113, 161 122 C 155 125, 150 122, 147 115"/>
  </g>
</svg>