<svg xmlns="http://www.w3.org/2000/svg" viewBox="0 0 200 200" width="100%" height="100%">
  <g fill="none" stroke="currentColor" stroke-width="2.5" stroke-linecap="round" stroke-linejoin="round">
    <!-- Blade -->
    <path d="M 30 95 L 35 110 L 130 110 L 130 95 C 130 90, 125 88, 118 88 L 40 88 C 32 88, 28 90, 30 95 Z"/>
    <!-- Blade tip -->
    <path d="M 30 95 C 25 100, 22 105, 20 108 C 22 110, 28 110, 35 110"/>
    <!-- Blade edge highlight -->
    <path d="M 35 105 C 75 105, 110 105, 125 105"/>
    <!-- Bolster -->
    <path d="M 130 88 L 130 110 L 138 110 L 138 88 Z"/>
    <!-- Handle -->
    <path d="M 138 90 L 138 108 C 138 112, 142 115, 148 115 L 175 115 C 180 115, 182 112, 182 108 L 182 90 C 182 85, 180 82, 175 82 L 148 82 C 142 82, 138 85, 138 90 Z"/>
    <!-- Handle rivets -->
    <circle cx="150" cy="98" r="2"/>
    <circle cx="165" cy="98" r="2"/>
    <!-- Handle grain detail -->
    <path d="M 145 92 C 155 92, 175 92, 178 92"/>
    <path d="M 145 105 C 155 105, 175 105, 178 105"/>
  </g>
</svg>