<svg xmlns="http://www.w3.org/2000/svg" viewBox="0 0 200 200" width="100%" height="100%">
  <g fill="none" stroke="currentColor" stroke-width="2.5" stroke-linecap="round" stroke-linejoin="round">
    <!-- Handle -->
    <path d="M 30 30 C 28 28, 28 35, 32 38 L 95 102 C 100 108, 108 108, 112 102 C 115 98, 113 92, 108 88 L 42 22 C 38 18, 32 22, 30 30 Z"/>
    <!-- Handle grip detail -->
    <path d="M 38 28 L 45 35"/>
    <path d="M 45 22 L 52 28"/>
    <!-- Connector -->
    <path d="M 110 102 L 122 115"/>
    <path d="M 105 108 L 118 120"/>
    <!-- Fork base -->
    <path d="M 118 115 C 122 118, 128 122, 135 125 C 130 130, 122 132, 115 130"/>
    <!-- Tine 1 (left/top) -->
    <path d="M 122 118 C 138 130, 158 142, 175 148 C 172 155, 168 158, 162 158 C 148 152, 130 138, 118 125"/>
    <!-- Tine 2 (middle) -->
    <path d="M 125 122 C 142 138, 162 152, 175 162 C 172 168, 165 168, 158 165 C 145 155, 128 138, 120 130"/>
    <!-- Tine 3 (right/bottom) -->
    <path d="M 122 130 C 138 145, 158 162, 170 175 C 165 178, 158 175, 152 170 C 138 158, 125 145, 115 135"/>
  </g>
</svg>