<svg xmlns="http://www.w3.org/2000/svg" viewBox="0 0 200 200" width="100%" height="100%">
  <g fill="none" stroke="currentColor" stroke-width="2.5" stroke-linecap="round" stroke-linejoin="round">
    <!-- Top blade -->
    <path d="M 30 50 C 50 55, 75 65, 95 80 C 105 88, 110 95, 108 102 C 102 105, 92 100, 82 92 C 65 80, 45 70, 30 65 C 25 60, 25 53, 30 50 Z"/>
    <!-- Bottom blade/handle area -->
    <path d="M 35 75 C 55 80, 78 90, 95 100 C 102 105, 105 110, 100 115 C 90 115, 75 108, 60 100 C 45 92, 35 85, 35 75 Z"/>
    <!-- Pivot point -->
    <circle cx="105" cy="100" r="4"/>
    <!-- Top handle -->
    <path d="M 108 102 C 125 110, 145 125, 160 145 C 168 158, 165 168, 155 168 C 145 165, 130 152, 118 138 C 110 125, 105 115, 108 102 Z"/>
    <!-- Bottom handle -->
    <path d="M 100 115 C 118 128, 138 148, 152 168 C 158 178, 152 185, 142 180 C 130 172, 115 155, 105 138 C 98 128, 95 120, 100 115 Z"/>
    <!-- Handle grip lines -->
    <path d="M 130 145 C 135 142, 140 142, 145 145"/>
    <path d="M 138 155 C 143 152, 148 152, 152 155"/>
    <path d="M 125 155 C 130 158, 135 162, 138 165"/>
    <path d="M 132 165 C 137 168, 142 170, 145 172"/>
  </g>
</svg>