<svg xmlns="http://www.w3.org/2000/svg" viewBox="0 0 200 200" width="100%" height="100%">
  <g fill="none" stroke="currentColor" stroke-width="2.5" stroke-linecap="round" stroke-linejoin="round">
    <!-- T-handle top -->
    <path d="M 75 25 L 125 25 L 125 38 L 75 38 Z"/>
    <path d="M 75 25 C 90 22, 110 22, 125 25"/>
    <!-- Handle vertical -->
    <path d="M 92 38 L 92 95 L 108 95 L 108 38"/>
    <!-- Handle grip lines -->
    <path d="M 92 50 L 108 50"/>
    <path d="M 92 65 L 108 65"/>
    <path d="M 92 80 L 108 80"/>
    <!-- Connection collar -->
    <path d="M 88 95 L 112 95 L 112 105 L 88 105 Z"/>
    <!-- Spade blade -->
    <path d="M 88 105 C 75 110, 65 125, 62 145 C 60 165, 75 178, 100 180 C 125 178, 140 165, 138 145 C 135 125, 125 110, 112 105"/>
    <!-- Inner blade detail -->
    <path d="M 95 115 C 88 122, 82 135, 82 148"/>
    <path d="M 105 115 C 112 122, 118 135, 118 148"/>
    <!-- Center vertical line -->
    <path d="M 100 110 C 100 130, 100 155, 100 175"/>
  </g>
</svg>