<svg xmlns="http://www.w3.org/2000/svg" viewBox="0 0 200 200" width="100%" height="100%">
  <g fill="none" stroke="#5F6E26" stroke-width="2.5" stroke-linecap="round" stroke-linejoin="round">
    <!-- Bag body -->
    <path d="M 35 75 L 35 165 L 165 165 L 165 75 Z"/>
    <!-- Top opening -->
    <path d="M 35 75 C 45 72, 75 70, 100 70 C 125 70, 155 72, 165 75"/>
    <!-- Inner lip -->
    <path d="M 40 80 C 55 82, 100 82, 145 82 C 155 82, 162 80, 165 78"/>
    <!-- Handle left -->
    <path d="M 55 75 C 50 60, 50 45, 60 38 C 70 35, 78 38, 80 50 C 82 60, 82 70, 82 75"/>
    <!-- Handle right -->
    <path d="M 145 75 C 150 60, 150 45, 140 38 C 130 35, 122 38, 120 50 C 118 60, 118 70, 118 75"/>
    <!-- Handle attachment dots -->
    <circle cx="55" cy="78" r="2"/>
    <circle cx="82" cy="78" r="2"/>
    <circle cx="118" cy="78" r="2"/>
    <circle cx="145" cy="78" r="2"/>
    <!-- Pocket on front -->
    <path d="M 50 105 L 50 150 L 150 150 L 150 105"/>
    <!-- Pocket dividers -->
    <path d="M 80 105 L 80 150"/>
    <path d="M 120 105 L 120 150"/>
    <!-- Bag bottom seam -->
    <path d="M 35 165 C 60 168, 140 168, 165 165"/>
    <!-- Stitching detail -->
    <path d="M 40 90 L 45 90"/>
    <path d="M 155 90 L 160 90"/>
    <path d="M 40 158 L 45 158"/>
    <path d="M 155 158 L 160 158"/>
  </g>
</svg>