<svg xmlns="http://www.w3.org/2000/svg" viewBox="0 0 200 200" width="100%" height="100%">
  <g fill="none" stroke="currentColor" stroke-width="2.5" stroke-linecap="round" stroke-linejoin="round">
    <!-- Body main -->
    <path d="M 50 75 L 50 165 C 50 172, 55 175, 62 175 L 130 175 C 138 175, 142 172, 142 165 L 142 75"/>
    <!-- Top opening -->
    <path d="M 50 75 C 65 70, 95 68, 142 75"/>
    <!-- Inner top oval -->
    <path d="M 55 78 C 70 82, 95 82, 138 78"/>
    <!-- Top rim/lid -->
    <path d="M 65 75 L 65 60 L 110 60 L 110 75"/>
    <path d="M 65 60 C 78 56, 100 56, 110 60"/>
    <!-- Long spout -->
    <path d="M 142 90 C 158 85, 175 75, 188 65 C 192 60, 192 55, 188 52 C 182 50, 175 55, 168 62 L 145 80"/>
    <!-- Spout end with shower head -->
    <path d="M 185 50 C 188 48, 195 50, 195 55 C 195 60, 192 62, 188 60"/>
    <path d="M 188 52 L 192 55"/>
    <!-- Top handle -->
    <path d="M 70 75 C 65 60, 70 45, 90 42 C 110 42, 125 50, 130 65 C 132 72, 130 75, 128 75"/>
    <!-- Side handle -->
    <path d="M 142 100 C 158 100, 168 115, 168 135 C 168 155, 158 168, 142 165"/>
    <!-- Body rings/bands -->
    <path d="M 52 110 C 75 112, 120 112, 142 110"/>
    <path d="M 52 140 C 75 142, 120 142, 142 140"/>
    <!-- Rivet details -->
    <circle cx="60" cy="95" r="1.5"/>
    <circle cx="135" cy="95" r="1.5"/>
  </g>
</svg>