<svg xmlns="http://www.w3.org/2000/svg" viewBox="0 0 200 200" width="100%" height="100%">
  <g fill="none" stroke="#5F6E26" stroke-width="2.5" stroke-linecap="round" stroke-linejoin="round">
    <!-- Center -->
    <circle cx="100" cy="80" r="10"/>
    <!-- Center texture -->
    <path d="M 95 76 L 98 78"/>
    <path d="M 100 74 L 100 76"/>
    <path d="M 105 76 L 102 78"/>
    <path d="M 95 84 L 98 82"/>
    <path d="M 100 86 L 100 84"/>
    <path d="M 105 84 L 102 82"/>
    <!-- 12 petals -->
    <ellipse cx="100" cy="55" rx="6" ry="13"/>
    <ellipse cx="118" cy="62" rx="6" ry="13" transform="rotate(30 118 62)"/>
    <ellipse cx="128" cy="78" rx="13" ry="6"/>
    <ellipse cx="125" cy="98" rx="6" ry="13" transform="rotate(-30 125 98)"/>
    <ellipse cx="115" cy="108" rx="6" ry="13" transform="rotate(-60 115 108)"/>
    <ellipse cx="100" cy="105" rx="6" ry="13"/>
    <ellipse cx="85" cy="108" rx="6" ry="13" transform="rotate(60 85 108)"/>
    <ellipse cx="75" cy="98" rx="6" ry="13" transform="rotate(30 75 98)"/>
    <ellipse cx="72" cy="78" rx="13" ry="6"/>
    <ellipse cx="75" cy="62" rx="6" ry="13" transform="rotate(-30 75 62)"/>
    <ellipse cx="85" cy="50" rx="6" ry="13" transform="rotate(-15 85 50)"/>
    <ellipse cx="115" cy="50" rx="6" ry="13" transform="rotate(15 115 50)"/>
    <!-- Stem -->
    <path d="M 100 110 C 100 130, 102 155, 100 180"/>
    <!-- Leaf -->
    <path d="M 100 145 C 85 140, 75 145, 78 155 C 90 158, 100 152, 100 145 Z"/>
    <path d="M 80 150 C 88 150, 95 150, 100 150"/>
  </g>
</svg>