<svg xmlns="http://www.w3.org/2000/svg" viewBox="0 0 200 200" width="100%" height="100%">
  <g fill="none" stroke="currentColor" stroke-width="2.5" stroke-linecap="round" stroke-linejoin="round">
    <!-- Bouquet wrapping/stems area -->
    <path d="M 85 130 L 80 175 L 120 175 L 115 130 Z"/>
    <!-- Tie/ribbon around bouquet -->
    <path d="M 78 145 C 90 142, 110 142, 122 145 C 122 152, 110 155, 100 155 C 90 155, 78 152, 78 145 Z"/>
    <!-- Ribbon tails -->
    <path d="M 80 152 C 75 162, 70 172, 65 180"/>
    <path d="M 120 152 C 125 162, 130 172, 135 180"/>
    <!-- Stems going up -->
    <path d="M 88 130 C 86 110, 80 90, 72 70"/>
    <path d="M 95 130 C 95 110, 92 85, 90 60"/>
    <path d="M 100 130 C 100 105, 102 75, 105 50"/>
    <path d="M 105 130 C 108 110, 115 90, 122 70"/>
    <path d="M 112 130 C 115 110, 122 88, 130 65"/>
    <!-- Flower blossoms - left flower -->
    <circle cx="72" cy="65" r="6"/>
    <path d="M 66 60 C 62 55, 60 60, 65 65"/>
    <path d="M 78 60 C 82 55, 84 60, 79 65"/>
    <path d="M 72 58 C 70 53, 74 53, 72 58"/>
    <path d="M 72 72 C 70 78, 74 78, 72 72"/>
    <!-- Center flower -->
    <circle cx="105" cy="48" r="7"/>
    <path d="M 98 42 C 92 38, 90 45, 95 50"/>
    <path d="M 112 42 C 118 38, 120 45, 115 50"/>
    <path d="M 105 38 C 102 32, 108 32, 105 38"/>
    <path d="M 105 56 C 102 62, 108 62, 105 56"/>
    <!-- Right flower -->
    <circle cx="130" cy="62" r="6"/>
    <path d="M 124 58 C 120 53, 118 58, 122 62"/>
    <path d="M 136 58 C 140 53, 142 58, 138 62"/>
    <path d="M 130 55 C 128 50, 132 50, 130 55"/>
    <!-- Smaller flowers/buds -->
    <circle cx="88" cy="58" r="4"/>
    <circle cx="118" cy="68" r="4"/>
    <circle cx="80" cy="80" r="3"/>
    <circle cx="125" cy="85" r="3"/>
    <!-- Leaves -->
    <path d="M 85 100 C 78 95, 72 98, 75 105 C 80 108, 85 105, 85 100 Z"/>
    <path d="M 115 100 C 122 95, 128 98, 125 105 C 120 108, 115 105, 115 100 Z"/>
    <path d="M 92 115 C 86 112, 82 115, 85 120 C 90 122, 94 118, 92 115 Z"/>
    <path d="M 108 115 C 114 112, 118 115, 115 120 C 110 122, 106 118, 108 115 Z"/>
  </g>
</svg>