<svg xmlns="http://www.w3.org/2000/svg" viewBox="0 0 200 200" width="100%" height="100%">
  <g fill="none" stroke="currentColor" stroke-width="2.5" stroke-linecap="round" stroke-linejoin="round">
    <!-- Mason jar body -->
    <path d="M 65 100 L 65 175 C 65 180, 70 183, 75 183 L 125 183 C 130 183, 135 180, 135 175 L 135 100"/>
    <!-- Jar neck -->
    <path d="M 65 100 L 65 95 L 135 95 L 135 100"/>
    <!-- Jar top rim -->
    <path d="M 65 95 C 80 92, 120 92, 135 95"/>
    <!-- Vertical lines on jar (texture) -->
    <path d="M 73 100 L 73 175"/>
    <path d="M 100 100 L 100 183"/>
    <path d="M 127 100 L 127 175"/>
    <!-- Jar bottom -->
    <path d="M 65 175 C 80 178, 120 178, 135 175"/>
    <!-- Water level -->
    <path d="M 70 145 C 85 147, 115 147, 130 145"/>
    <!-- Flowers coming out -->
    <!-- Stems in water visible through jar -->
    <path d="M 85 95 L 85 145"/>
    <path d="M 95 95 L 95 145"/>
    <path d="M 105 95 L 105 145"/>
    <path d="M 115 95 L 115 145"/>
    <!-- Stems above jar -->
    <path d="M 85 95 C 80 75, 70 55, 60 38"/>
    <path d="M 95 95 C 92 70, 92 50, 92 28"/>
    <path d="M 105 95 C 108 70, 110 50, 112 25"/>
    <path d="M 115 95 C 122 75, 132 55, 145 38"/>
    <!-- Flowers -->
    <circle cx="60" cy="38" r="6"/>
    <path d="M 54 32 C 50 28, 50 35, 55 38"/>
    <path d="M 66 32 C 70 28, 70 35, 65 38"/>
    
    <circle cx="92" cy="28" r="7"/>
    <path d="M 85 22 C 80 17, 82 12, 88 18"/>
    <path d="M 99 22 C 104 17, 102 12, 96 18"/>
    <path d="M 92 18 C 92 12, 96 10, 96 14"/>
    
    <circle cx="112" cy="25" r="6"/>
    <path d="M 105 22 C 102 18, 105 13, 109 18"/>
    <path d="M 119 22 C 122 18, 119 13, 115 18"/>
    
    <circle cx="145" cy="38" r="6"/>
    <path d="M 139 32 C 135 28, 135 35, 140 38"/>
    <path d="M 151 32 C 155 28, 155 35, 150 38"/>
    <!-- Leaves -->
    <path d="M 80 70 C 75 65, 70 67, 73 73 C 78 75, 82 72, 80 70 Z"/>
    <path d="M 120 70 C 125 65, 130 67, 127 73 C 122 75, 118 72, 120 70 Z"/>
    <path d="M 88 55 C 84 52, 80 54, 82 58 C 86 60, 90 58, 88 55 Z"/>
    <path d="M 112 55 C 116 52, 120 54, 118 58 C 114 60, 110 58, 112 55 Z"/>
  </g>
</svg>