<svg xmlns="http://www.w3.org/2000/svg" viewBox="0 0 200 200" width="100%" height="100%">
  <g fill="none" stroke="#5F6E26" stroke-width="2.5" stroke-linecap="round" stroke-linejoin="round">
    <!-- Top left petal -->
    <path d="M 70 65 C 55 55, 45 65, 50 80 C 55 92, 70 95, 82 88 C 88 82, 88 75, 82 70 C 78 65, 73 65, 70 65 Z"/>
    <!-- Top right petal -->
    <path d="M 130 65 C 145 55, 155 65, 150 80 C 145 92, 130 95, 118 88 C 112 82, 112 75, 118 70 C 122 65, 127 65, 130 65 Z"/>
    <!-- Middle left petal -->
    <path d="M 65 105 C 50 110, 45 125, 55 138 C 70 142, 85 132, 90 118 C 92 110, 88 102, 82 102 C 75 102, 68 102, 65 105 Z"/>
    <!-- Middle right petal -->
    <path d="M 135 105 C 150 110, 155 125, 145 138 C 130 142, 115 132, 110 118 C 108 110, 112 102, 118 102 C 125 102, 132 102, 135 105 Z"/>
    <!-- Bottom petal (largest) -->
    <path d="M 80 110 C 75 130, 80 155, 100 165 C 120 155, 125 130, 120 110 C 115 105, 105 105, 100 108 C 95 105, 85 105, 80 110 Z"/>
    <!-- Center -->
    <circle cx="100" cy="100" r="6"/>
    <!-- Center detail -->
    <path d="M 96 98 L 104 102"/>
    <path d="M 104 98 L 96 102"/>
    <!-- Petal lines from center -->
    <path d="M 95 95 C 88 88, 80 82, 72 78"/>
    <path d="M 105 95 C 112 88, 120 82, 128 78"/>
    <path d="M 92 105 C 80 115, 70 125, 65 130"/>
    <path d="M 108 105 C 120 115, 130 125, 135 130"/>
    <path d="M 100 108 C 100 125, 100 145, 100 158"/>
    <!-- Stem -->
    <path d="M 100 165 C 100 175, 100 185, 100 195"/>
  </g>
</svg>