<svg xmlns="http://www.w3.org/2000/svg" viewBox="0 0 200 200" width="100%" height="100%">
  <g fill="none" stroke="currentColor" stroke-width="2.5" stroke-linecap="round" stroke-linejoin="round">
    <!-- Daffodil 1 (left) -->
    <path d="M 65 90 L 58 50"/>
    <!-- Petals -->
    <path d="M 58 50 C 48 45, 42 50, 45 60 C 50 60, 56 55, 58 50"/>
    <path d="M 58 50 C 50 38, 50 30, 58 28 C 60 35, 60 42, 58 50"/>
    <path d="M 58 50 C 64 38, 70 35, 73 42 C 70 50, 65 53, 58 50"/>
    <path d="M 58 50 C 70 50, 75 55, 70 62 C 62 60, 58 55, 58 50"/>
    <!-- Trumpet/center -->
    <ellipse cx="58" cy="50" rx="5" ry="6"/>
    <!-- Daffodil 2 (center) -->
    <path d="M 100 90 L 100 35"/>
    <path d="M 100 35 C 88 30, 82 35, 85 45 C 92 45, 98 40, 100 35"/>
    <path d="M 100 35 C 92 22, 92 15, 100 13 C 105 18, 105 28, 100 35"/>
    <path d="M 100 35 C 108 22, 115 22, 115 30 C 110 35, 105 38, 100 35"/>
    <path d="M 100 35 C 115 35, 120 42, 115 50 C 105 48, 100 42, 100 35"/>
    <ellipse cx="100" cy="35" rx="6" ry="7"/>
    <!-- Daffodil 3 (right) -->
    <path d="M 135 90 L 142 55"/>
    <path d="M 142 55 C 132 50, 128 55, 130 63 C 137 62, 142 58, 142 55"/>
    <path d="M 142 55 C 134 42, 134 35, 142 33 C 145 40, 145 50, 142 55"/>
    <path d="M 142 55 C 150 45, 156 45, 156 52 C 152 58, 147 60, 142 55"/>
    <path d="M 142 55 C 154 60, 158 65, 152 70 C 145 65, 142 60, 142 55"/>
    <ellipse cx="142" cy="55" rx="5" ry="6"/>
    <!-- Leaves -->
    <path d="M 80 85 C 80 70, 78 50, 75 35"/>
    <path d="M 90 88 C 88 70, 88 50, 92 28"/>
    <path d="M 110 88 C 112 70, 115 50, 118 32"/>
    <path d="M 120 85 C 122 70, 125 55, 130 40"/>
    <!-- Pot rim -->
    <path d="M 50 90 L 150 90 L 150 100 L 50 100 Z"/>
    <path d="M 50 90 C 70 87, 130 87, 150 90"/>
    <!-- Pot body -->
    <path d="M 55 100 L 65 175 L 135 175 L 145 100"/>
    <!-- Pot decoration -->
    <path d="M 60 130 C 80 132, 120 132, 140 130"/>
    <path d="M 62 155 C 82 157, 118 157, 138 155"/>
  </g>
</svg>