<svg xmlns="http://www.w3.org/2000/svg" viewBox="0 0 200 200" width="100%" height="100%">
  <g fill="none" stroke="#5F6E26" stroke-width="2.5" stroke-linecap="round" stroke-linejoin="round">
    <!-- Center disk -->
    <circle cx="100" cy="80" r="22"/>
    <!-- Center seeds pattern -->
    <circle cx="100" cy="80" r="16"/>
    <path d="M 90 75 L 95 78"/>
    <path d="M 100 70 L 100 75"/>
    <path d="M 110 75 L 105 78"/>
    <path d="M 90 85 L 95 82"/>
    <path d="M 100 90 L 100 85"/>
    <path d="M 110 85 L 105 82"/>
    <path d="M 95 80 L 100 80"/>
    <path d="M 105 80 L 100 80"/>
    <!-- Petals around (12 petals) -->
    <path d="M 100 58 C 95 45, 92 30, 100 22 C 108 30, 105 45, 100 58 Z"/>
    <path d="M 115 62 C 118 50, 125 40, 132 42 C 132 52, 125 60, 115 62 Z"/>
    <path d="M 122 80 C 135 78, 148 78, 150 85 C 142 92, 130 88, 122 80 Z"/>
    <path d="M 118 95 C 130 100, 140 110, 138 118 C 128 118, 120 108, 118 95 Z"/>
    <path d="M 105 102 C 110 115, 115 128, 108 135 C 100 128, 100 115, 105 102 Z"/>
    <path d="M 95 102 C 90 115, 85 128, 92 135 C 100 128, 100 115, 95 102 Z"/>
    <path d="M 82 95 C 70 100, 60 110, 62 118 C 72 118, 80 108, 82 95 Z"/>
    <path d="M 78 80 C 65 78, 52 78, 50 85 C 58 92, 70 88, 78 80 Z"/>
    <path d="M 85 62 C 82 50, 75 40, 68 42 C 68 52, 75 60, 85 62 Z"/>
    <!-- Stem -->
    <path d="M 100 102 L 100 175"/>
    <!-- Leaves on stem -->
    <path d="M 100 130 C 85 125, 70 130, 65 140 C 75 145, 92 142, 100 138 Z"/>
    <path d="M 100 150 C 115 145, 130 150, 135 160 C 125 165, 108 162, 100 158 Z"/>
    <!-- Leaf veins -->
    <path d="M 70 138 C 80 137, 90 137, 98 135"/>
    <path d="M 130 158 C 120 157, 110 157, 102 155"/>
  </g>
</svg>