<svg xmlns="http://www.w3.org/2000/svg" viewBox="0 0 200 200" width="100%" height="100%">
  <g fill="none" stroke="currentColor" stroke-width="2.5" stroke-linecap="round" stroke-linejoin="round">
    <!-- Teapot body -->
    <path d="M 50 110 C 45 130, 50 160, 70 175 C 95 180, 130 180, 150 172 C 165 160, 168 138, 162 118"/>
    <!-- Top of pot -->
    <path d="M 50 110 C 65 105, 95 102, 120 102 C 140 102, 158 108, 162 118"/>
    <!-- Pot rim -->
    <path d="M 60 105 L 60 95 L 130 95 L 130 105"/>
    <path d="M 60 95 C 75 92, 115 92, 130 95"/>
    <!-- Lid -->
    <path d="M 65 95 C 70 88, 75 85, 95 85 C 115 85, 120 88, 125 95"/>
    <!-- Lid knob -->
    <circle cx="95" cy="82" r="3"/>
    <path d="M 95 80 L 95 75"/>
    <!-- Spout -->
    <path d="M 50 115 C 38 110, 28 100, 22 88 C 22 85, 26 85, 30 88 C 38 95, 45 102, 52 110"/>
    <!-- Handle -->
    <path d="M 162 118 C 178 115, 188 130, 185 145 C 182 158, 170 165, 158 160"/>
    <!-- Flowers spilling out -->
    <!-- Left flower -->
    <path d="M 70 85 C 65 70, 55 62, 50 65 C 52 75, 60 82, 70 85"/>
    <circle cx="58" cy="68" r="4"/>
    <!-- Center flowers -->
    <path d="M 88 80 C 85 60, 80 45, 75 35 C 78 50, 82 65, 88 78"/>
    <path d="M 95 78 C 92 55, 90 35, 92 25 C 96 38, 98 60, 98 78"/>
    <path d="M 105 78 C 108 55, 110 38, 112 28 C 110 50, 108 65, 105 78"/>
    <path d="M 115 80 C 120 60, 128 45, 135 38 C 130 55, 122 70, 115 78"/>
    <!-- Flower blossoms -->
    <circle cx="75" cy="35" r="5"/>
    <path d="M 70 30 C 68 28, 70 25, 73 28"/>
    <path d="M 80 30 C 82 28, 80 25, 77 28"/>
    <circle cx="92" cy="25" r="6"/>
    <path d="M 86 22 C 82 20, 84 16, 88 20"/>
    <path d="M 98 22 C 102 20, 100 16, 96 20"/>
    <circle cx="112" cy="28" r="5"/>
    <circle cx="135" cy="38" r="4"/>
    <!-- Small leaves -->
    <path d="M 82 60 C 78 58, 75 60, 78 65 C 82 65, 85 62, 82 60 Z"/>
    <path d="M 105 50 C 110 48, 113 50, 110 55 C 105 55, 102 53, 105 50 Z"/>
    <!-- Pot decoration -->
    <path d="M 70 130 C 90 132, 130 132, 150 130"/>
  </g>
</svg>