<svg xmlns="http://www.w3.org/2000/svg" viewBox="0 0 200 200" width="100%" height="100%">
  <g fill="none" stroke="#5F6E26" stroke-width="2.5" stroke-linecap="round" stroke-linejoin="round">
    <!-- Top bush ball - bumpy circle -->
    <path d="M 60 75 C 55 65, 60 50, 70 45 C 75 40, 85 38, 92 42 C 98 38, 108 38, 115 42 C 122 40, 132 42, 138 50 C 145 55, 148 65, 145 75 C 150 85, 148 98, 138 102 C 132 110, 120 110, 112 105 C 105 110, 95 110, 88 105 C 80 110, 68 110, 62 102 C 52 98, 50 85, 60 75 Z"/>
    <!-- Texture bumps -->
    <path d="M 65 65 C 70 60, 75 60, 78 65"/>
    <path d="M 82 55 C 87 50, 92 50, 95 55"/>
    <path d="M 105 55 C 110 50, 115 50, 118 55"/>
    <path d="M 125 65 C 130 60, 135 60, 138 65"/>
    <path d="M 60 85 C 65 82, 70 82, 73 85"/>
    <path d="M 80 80 C 85 77, 90 77, 93 80"/>
    <path d="M 100 78 C 105 75, 110 75, 113 78"/>
    <path d="M 120 80 C 125 77, 130 77, 133 80"/>
    <path d="M 140 85 C 143 82, 148 85, 145 88"/>
    <path d="M 65 95 C 70 92, 75 92, 78 95"/>
    <path d="M 88 100 C 93 97, 98 97, 102 100"/>
    <path d="M 110 100 C 115 97, 120 97, 125 100"/>
    <!-- Tiny leaves throughout -->
    <path d="M 75 70 L 78 73"/>
    <path d="M 100 65 L 103 68"/>
    <path d="M 125 70 L 128 73"/>
    <path d="M 85 90 L 88 93"/>
    <path d="M 115 90 L 118 93"/>
    <!-- Trunk -->
    <path d="M 95 110 L 95 145"/>
    <path d="M 105 110 L 105 145"/>
    <!-- Pot -->
    <path d="M 70 145 L 75 175 L 125 175 L 130 145"/>
    <path d="M 70 145 L 130 145 L 130 152 L 70 152 Z"/>
    <path d="M 70 145 C 85 142, 115 142, 130 145"/>
    <!-- Pot decoration -->
    <path d="M 75 165 C 90 167, 110 167, 125 165"/>
  </g>
</svg>