<svg xmlns="http://www.w3.org/2000/svg" viewBox="0 0 200 200" width="100%" height="100%">
  <g fill="none" stroke="currentColor" stroke-width="2.5" stroke-linecap="round" stroke-linejoin="round">
    <!-- Tulip flower - 3 petals visible -->
    <!-- Left petal -->
    <path d="M 75 60 C 70 45, 75 25, 90 22 C 95 35, 95 50, 92 65 C 85 70, 78 68, 75 60 Z"/>
    <!-- Right petal -->
    <path d="M 125 60 C 130 45, 125 25, 110 22 C 105 35, 105 50, 108 65 C 115 70, 122 68, 125 60 Z"/>
    <!-- Center petal -->
    <path d="M 92 65 C 88 45, 95 22, 100 18 C 105 22, 112 45, 108 65 C 105 72, 95 72, 92 65 Z"/>
    <!-- Petal divisions -->
    <path d="M 100 18 C 100 35, 100 55, 100 70"/>
    <!-- Stem -->
    <path d="M 100 70 L 100 175"/>
    <!-- Leaf 1 -->
    <path d="M 100 105 C 85 95, 70 92, 60 105 C 65 120, 80 125, 95 115 C 100 112, 100 108, 100 105 Z"/>
    <!-- Leaf vein 1 -->
    <path d="M 65 108 C 78 110, 88 112, 95 113"/>
    <!-- Leaf 2 -->
    <path d="M 100 130 C 115 120, 132 122, 140 138 C 132 150, 115 148, 102 138"/>
    <!-- Leaf vein 2 -->
    <path d="M 105 135 C 118 135, 130 137, 138 140"/>
  </g>
</svg>