<svg xmlns="http://www.w3.org/2000/svg" viewBox="0 0 200 200" width="100%" height="100%">
  <g fill="none" stroke="currentColor" stroke-width="2.5" stroke-linecap="round" stroke-linejoin="round">
    <!-- Top knob -->
    <path d="M 92 25 C 92 18, 108 18, 108 25 L 108 35 L 92 35 Z"/>
    <!-- Top bit connecting -->
    <path d="M 95 35 C 95 40, 95 42, 95 45 L 105 45 C 105 42, 105 40, 105 35"/>
    <!-- Cloche body -->
    <path d="M 70 50 C 65 55, 60 65, 55 80 C 50 105, 45 135, 40 165 C 60 168, 90 170, 100 170 C 110 170, 140 168, 160 165 C 155 135, 150 105, 145 80 C 140 65, 135 55, 130 50 Z"/>
    <!-- Top rim -->
    <path d="M 70 50 C 80 48, 90 47, 100 47 C 110 47, 120 48, 130 50"/>
    <!-- Crosshatch pattern - vertical lines -->
    <path d="M 65 70 C 65 100, 60 140, 55 165"/>
    <path d="M 85 65 C 85 100, 82 140, 78 165"/>
    <path d="M 100 62 C 100 100, 100 140, 100 168"/>
    <path d="M 115 65 C 115 100, 118 140, 122 165"/>
    <path d="M 135 70 C 135 100, 140 140, 145 165"/>
    <!-- Crosshatch pattern - horizontal curves -->
    <path d="M 60 90 C 75 88, 100 87, 125 88 C 135 89, 142 90, 145 92"/>
    <path d="M 55 115 C 75 113, 105 112, 130 113 C 140 114, 148 115, 152 117"/>
    <path d="M 50 140 C 75 138, 105 137, 135 138 C 145 139, 155 140, 158 142"/>
    <!-- Bottom rim -->
    <path d="M 38 165 C 60 175, 100 178, 140 175 C 155 172, 162 168, 160 165"/>
  </g>
</svg>