<svg xmlns="http://www.w3.org/2000/svg" viewBox="0 0 200 200" width="100%" height="100%">
  <g fill="none" stroke="#5F6E26" stroke-width="2.5" stroke-linecap="round" stroke-linejoin="round">
    <!-- Bottle cap/cork -->
    <path d="M 90 30 L 90 55 L 110 55 L 110 30 Z"/>
    <path d="M 90 30 C 95 28, 105 28, 110 30"/>
    <!-- Cork lines -->
    <path d="M 92 38 L 108 38"/>
    <path d="M 92 45 L 108 45"/>
    <!-- Bottle neck -->
    <path d="M 92 55 L 92 75"/>
    <path d="M 108 55 L 108 75"/>
    <!-- Shoulder/transition -->
    <path d="M 92 75 C 80 80, 70 90, 70 105"/>
    <path d="M 108 75 C 120 80, 130 90, 130 105"/>
    <!-- Body -->
    <path d="M 70 105 L 70 170 C 70 175, 75 178, 80 178 L 120 178 C 125 178, 130 175, 130 170 L 130 105"/>
    <!-- Bottom -->
    <path d="M 70 170 C 85 173, 115 173, 130 170"/>
    <!-- Label -->
    <path d="M 75 115 L 75 155 L 125 155 L 125 115 Z"/>
    <path d="M 75 115 C 90 113, 110 113, 125 115"/>
    <!-- Label decoration -->
    <path d="M 82 125 C 92 127, 108 127, 118 125"/>
    <path d="M 85 140 C 95 142, 105 142, 115 140"/>
    <!-- Highlight on bottle -->
    <path d="M 75 110 C 73 130, 73 155, 78 170"/>
  </g>
</svg>