<svg xmlns="http://www.w3.org/2000/svg" viewBox="0 0 200 200" width="100%" height="100%">
  <g fill="none" stroke="currentColor" stroke-width="2.5" stroke-linecap="round" stroke-linejoin="round">
    <!-- Book cover -->
    <path d="M 45 35 L 45 175 L 155 175 L 155 35 Z"/>
    <!-- Spine line -->
    <path d="M 50 38 L 50 172"/>
    <!-- Inner border -->
    <path d="M 60 50 L 145 50 L 145 160 L 60 160 Z"/>
    <!-- Title area -->
    <path d="M 70 70 L 135 70 L 135 95 L 70 95 Z"/>
    <!-- Title text "A FLOWER BOOK" - simplified letter strokes -->
    <text x="100" y="82" font-family="serif" font-size="9" text-anchor="middle" stroke="none" fill="currentColor">A FLOWER</text>
    <text x="100" y="92" font-family="serif" font-size="9" text-anchor="middle" stroke="none" fill="currentColor">BOOK</text>
    <!-- Decorative flower in center -->
    <circle cx="100" cy="125" r="8"/>
    <path d="M 92 117 C 88 113, 88 108, 92 108 C 96 110, 96 115, 95 118"/>
    <path d="M 108 117 C 112 113, 112 108, 108 108 C 104 110, 104 115, 105 118"/>
    <path d="M 92 133 C 88 137, 88 142, 92 142 C 96 140, 96 135, 95 132"/>
    <path d="M 108 133 C 112 137, 112 142, 108 142 C 104 140, 104 135, 105 132"/>
    <!-- Leaves around flower -->
    <path d="M 80 130 C 72 128, 70 132, 75 138 C 82 138, 84 132, 80 130 Z"/>
    <path d="M 120 130 C 128 128, 130 132, 125 138 C 118 138, 116 132, 120 130 Z"/>
    <!-- Page edges (right side - book pages) -->
    <path d="M 155 38 L 158 40 L 158 175 L 155 173"/>
    <path d="M 156 50 L 158 52"/>
    <path d="M 156 80 L 158 82"/>
    <path d="M 156 110 L 158 112"/>
    <path d="M 156 140 L 158 142"/>
  </g>
</svg>