<svg xmlns="http://www.w3.org/2000/svg" viewBox="0 0 200 200" width="100%" height="100%">
  <g fill="none" stroke="#5F6E26" stroke-width="2.5" stroke-linecap="round" stroke-linejoin="round">
    <!-- Lid top with cloth/fabric -->
    <path d="M 60 35 C 55 38, 50 42, 50 50 C 60 55, 75 58, 100 58 C 125 58, 140 55, 150 50 C 150 42, 145 38, 140 35 C 130 30, 70 30, 60 35 Z"/>
    <!-- Cloth wavy pattern -->
    <path d="M 55 42 C 62 40, 70 42, 78 40 C 85 42, 92 40, 100 42 C 108 40, 115 42, 122 40 C 130 42, 138 40, 145 42"/>
    <!-- Tie/string -->
    <path d="M 55 50 C 62 53, 138 53, 145 50"/>
    <!-- Jar body -->
    <path d="M 58 50 L 58 165 C 58 172, 65 178, 75 180 L 125 180 C 135 178, 142 172, 142 165 L 142 50"/>
    <!-- Jar bottom curve -->
    <path d="M 58 165 C 75 168, 125 168, 142 165"/>
    <!-- Pickles/cucumbers inside -->
    <ellipse cx="78" cy="90" rx="8" ry="22" transform="rotate(-15 78 90)"/>
    <ellipse cx="100" cy="85" rx="8" ry="22"/>
    <ellipse cx="122" cy="92" rx="8" ry="22" transform="rotate(15 122 92)"/>
    <ellipse cx="85" cy="135" rx="8" ry="22" transform="rotate(10 85 135)"/>
    <ellipse cx="108" cy="138" rx="8" ry="22" transform="rotate(-10 108 138)"/>
    <ellipse cx="125" cy="135" rx="8" ry="22" transform="rotate(20 125 135)"/>
    <!-- Cucumber bumps -->
    <path d="M 75 80 L 78 82"/>
    <path d="M 78 95 L 81 97"/>
    <path d="M 98 78 L 101 80"/>
    <path d="M 100 95 L 103 97"/>
    <path d="M 120 85 L 123 87"/>
    <path d="M 122 105 L 125 107"/>
    <!-- Liquid level -->
    <path d="M 60 75 C 75 73, 125 73, 140 75"/>
  </g>
</svg>