<svg xmlns="http://www.w3.org/2000/svg" viewBox="0 0 200 200" width="100%" height="100%">
  <g fill="none" stroke="currentColor" stroke-width="2.5" stroke-linecap="round" stroke-linejoin="round">
    <!-- Pot/cup base -->
    <path d="M 50 110 L 60 175 L 140 175 L 150 110"/>
    <path d="M 50 110 C 65 105, 135 105, 150 110"/>
    <!-- Pot rim inner -->
    <path d="M 55 115 C 70 118, 130 118, 145 115"/>
    <!-- Pot decoration line -->
    <path d="M 58 145 C 75 147, 125 147, 142 145"/>
    <!-- Cushion top (round) -->
    <path d="M 60 110 C 55 95, 65 80, 80 75 C 95 70, 110 72, 125 78 C 140 85, 145 100, 140 110"/>
    <!-- Cushion segment lines -->
    <path d="M 100 75 C 100 90, 100 102, 100 110"/>
    <path d="M 80 78 C 85 90, 90 100, 95 108"/>
    <path d="M 120 78 C 115 90, 110 100, 105 108"/>
    <!-- Pins sticking out -->
    <path d="M 75 75 L 70 60"/>
    <circle cx="68" cy="58" r="2.5"/>
    <path d="M 88 70 L 88 50"/>
    <circle cx="88" cy="48" r="2.5"/>
    <path d="M 100 68 L 102 45"/>
    <circle cx="102" cy="43" r="2.5"/>
    <path d="M 112 70 L 115 50"/>
    <circle cx="115" cy="48" r="2.5"/>
    <path d="M 125 75 L 132 58"/>
    <circle cx="132" cy="56" r="2.5"/>
    <path d="M 95 78 L 92 60"/>
    <circle cx="92" cy="58" r="2"/>
    <path d="M 108 75 L 110 55"/>
    <circle cx="110" cy="53" r="2"/>
  </g>
</svg>