<svg xmlns="http://www.w3.org/2000/svg" viewBox="0 0 200 200" width="100%" height="100%">
  <g fill="none" stroke="currentColor" stroke-width="2.5" stroke-linecap="round" stroke-linejoin="round">
    <!-- Packet outer -->
    <path d="M 50 35 L 150 35 L 150 175 L 50 175 Z"/>
    <!-- Inner border -->
    <path d="M 58 45 L 142 45 L 142 165 L 58 165 Z"/>
    <!-- Top fold line -->
    <path d="M 58 55 C 80 53, 120 53, 142 55"/>
    <!-- Title area at top -->
    <path d="M 65 65 L 135 65 L 135 78 L 65 78 Z"/>
    <!-- Title text "SEEDS" -->
    <text x="100" y="74" font-family="serif" font-size="10" text-anchor="middle" stroke="none" fill="currentColor" letter-spacing="2">SEEDS</text>
    <!-- Decorative flower in middle -->
    <circle cx="100" cy="115" r="10"/>
    <path d="M 88 105 C 82 95, 86 88, 95 90 C 95 95, 92 100, 90 105"/>
    <path d="M 112 105 C 118 95, 114 88, 105 90 C 105 95, 108 100, 110 105"/>
    <path d="M 88 125 C 82 135, 86 142, 95 140 C 95 135, 92 130, 90 125"/>
    <path d="M 112 125 C 118 135, 114 142, 105 140 C 105 135, 108 130, 110 125"/>
    <!-- Flower center detail -->
    <circle cx="100" cy="115" r="3"/>
    <!-- Leaves around flower -->
    <path d="M 80 120 C 72 118, 68 122, 72 128 C 78 128, 82 124, 80 120 Z"/>
    <path d="M 120 120 C 128 118, 132 122, 128 128 C 122 128, 118 124, 120 120 Z"/>
    <!-- Bottom info area -->
    <path d="M 65 145 L 135 145"/>
    <path d="M 70 152 L 130 152"/>
    <path d="M 70 158 L 120 158"/>
    <!-- Notched top edge (where you'd tear it) -->
    <path d="M 50 35 L 55 38 L 60 35 L 65 38 L 70 35 L 75 38 L 80 35 L 85 38 L 90 35 L 95 38 L 100 35 L 105 38 L 110 35 L 115 38 L 120 35 L 125 38 L 130 35 L 135 38 L 140 35 L 145 38 L 150 35"/>
  </g>
</svg>