<svg xmlns="http://www.w3.org/2000/svg" viewBox="0 0 200 200" width="100%" height="100%">
  <g fill="none" stroke="currentColor" stroke-width="2.5" stroke-linecap="round" stroke-linejoin="round">
    <!-- Pot 1 (bottom) -->
    <path d="M 50 150 L 60 175 L 140 175 L 150 150"/>
    <path d="M 50 150 L 150 150 L 150 158 L 50 158 Z"/>
    <path d="M 50 150 C 75 147, 125 147, 150 150"/>
    
    <!-- Pot 2 (middle) -->
    <path d="M 55 115 L 62 140 L 138 140 L 145 115"/>
    <path d="M 55 115 L 145 115 L 145 123 L 55 123 Z"/>
    <path d="M 55 115 C 80 112, 120 112, 145 115"/>
    
    <!-- Pot 3 (top) -->
    <path d="M 60 80 L 67 105 L 133 105 L 140 80"/>
    <path d="M 60 80 L 140 80 L 140 88 L 60 88 Z"/>
    <path d="M 60 80 C 85 77, 115 77, 140 80"/>
    
    <!-- Pot 4 (smallest top) -->
    <path d="M 70 50 L 75 70 L 125 70 L 130 50"/>
    <path d="M 70 50 L 130 50 L 130 56 L 70 56 Z"/>
    <path d="M 70 50 C 85 48, 115 48, 130 50"/>
    
    <!-- Texture marks -->
    <path d="M 75 95 L 80 100"/>
    <path d="M 110 90 L 115 95"/>
    <path d="M 75 130 L 80 135"/>
    <path d="M 115 128 L 120 133"/>
    <path d="M 70 165 L 75 170"/>
    <path d="M 120 160 L 125 165"/>
  </g>
</svg>