<svg xmlns="http://www.w3.org/2000/svg" viewBox="0 0 200 200" width="100%" height="100%">
  <g fill="none" stroke="#5F6E26" stroke-width="2.5" stroke-linecap="round" stroke-linejoin="round">
    <!-- Body (oval) -->
    <ellipse cx="100" cy="115" rx="38" ry="28"/>
    <!-- Stripes -->
    <path d="M 78 95 C 80 110, 80 125, 78 138"/>
    <path d="M 95 90 C 95 108, 95 125, 95 142"/>
    <path d="M 110 90 C 110 108, 110 125, 110 142"/>
    <path d="M 125 95 C 122 110, 122 125, 125 138"/>
    <!-- Head -->
    <circle cx="62" cy="100" r="14"/>
    <!-- Eyes -->
    <circle cx="58" cy="98" r="2"/>
    <!-- Antennae -->
    <path d="M 55 88 C 48 78, 42 70, 40 65"/>
    <path d="M 65 85 C 62 75, 60 65, 60 60"/>
    <circle cx="40" cy="63" r="2"/>
    <circle cx="60" cy="58" r="2"/>
    <!-- Smile -->
    <path d="M 53 105 C 56 108, 60 108, 63 105"/>
    <!-- Stinger -->
    <path d="M 138 115 L 148 115"/>
    <!-- Top wings -->
    <path d="M 75 80 C 75 60, 90 50, 105 55 C 110 65, 105 80, 95 85 C 85 88, 78 85, 75 80 Z"/>
    <path d="M 110 75 C 115 55, 130 50, 142 60 C 145 75, 135 85, 122 88 C 115 88, 112 85, 110 75 Z"/>
    <!-- Wing details -->
    <path d="M 85 65 C 88 70, 92 75, 95 80"/>
    <path d="M 122 65 C 128 70, 132 75, 135 80"/>
  </g>
</svg>