<svg xmlns="http://www.w3.org/2000/svg" viewBox="0 0 200 200" width="100%" height="100%">
  <g fill="none" stroke="currentColor" stroke-width="2.5" stroke-linecap="round" stroke-linejoin="round">
    <!-- Left loop -->
    <path d="M 95 100 C 75 80, 50 75, 32 88 C 22 100, 25 118, 40 125 C 60 130, 82 122, 95 105 Z"/>
    <!-- Left loop inner curve -->
    <path d="M 50 95 C 45 100, 42 110, 50 118"/>
    <!-- Right loop -->
    <path d="M 105 100 C 125 80, 150 75, 168 88 C 178 100, 175 118, 160 125 C 140 130, 118 122, 105 105 Z"/>
    <!-- Right loop inner curve -->
    <path d="M 150 95 C 155 100, 158 110, 150 118"/>
    <!-- Center knot -->
    <path d="M 92 95 C 88 100, 88 110, 92 115 L 108 115 C 112 110, 112 100, 108 95 Z"/>
    <!-- Knot fold lines -->
    <path d="M 96 95 C 96 105, 96 110, 96 115"/>
    <path d="M 104 95 C 104 105, 104 110, 104 115"/>
    <!-- Left tail -->
    <path d="M 92 115 C 80 130, 70 145, 60 165"/>
    <path d="M 92 115 C 75 128, 62 145, 50 168"/>
    <path d="M 50 168 C 55 165, 60 165, 65 168"/>
    <!-- Right tail -->
    <path d="M 108 115 C 120 130, 130 145, 140 165"/>
    <path d="M 108 115 C 125 128, 138 145, 150 168"/>
    <path d="M 135 168 C 140 165, 145 165, 150 168"/>
  </g>
</svg>