<svg xmlns="http://www.w3.org/2000/svg" viewBox="0 0 200 200" width="100%" height="100%">
  <g fill="none" stroke="#5F6E26" stroke-width="2.5" stroke-linecap="round" stroke-linejoin="round">
    <!-- Hand shape -->
    <!-- Wrist/cuff -->
    <path d="M 25 130 L 25 175 L 70 175 L 70 130"/>
    <path d="M 25 175 C 35 178, 60 178, 70 175"/>
    <!-- Cuff hatching -->
    <path d="M 30 145 L 33 152"/>
    <path d="M 40 145 L 43 152"/>
    <path d="M 50 145 L 53 152"/>
    <path d="M 60 145 L 63 152"/>
    <path d="M 30 162 L 33 169"/>
    <path d="M 45 162 L 48 169"/>
    <path d="M 60 162 L 63 169"/>
    <!-- Palm -->
    <path d="M 25 130 C 22 115, 28 100, 40 95 C 50 90, 65 92, 75 100 L 95 110"/>
    <path d="M 70 130 C 68 120, 72 110, 80 105"/>
    <!-- Thumb -->
    <path d="M 75 100 C 70 85, 75 75, 85 78 C 92 85, 90 95, 85 100"/>
    <!-- Index finger holding leaf -->
    <path d="M 95 110 C 105 105, 115 102, 122 100"/>
    <path d="M 95 115 C 105 112, 115 110, 122 108"/>
    <!-- Other fingers -->
    <path d="M 60 95 C 65 80, 75 70, 85 75"/>
    <path d="M 50 95 C 50 78, 55 65, 65 65"/>
    <path d="M 40 95 C 38 80, 40 68, 50 65"/>
    
    <!-- Leaf/branch in hand -->
    <!-- Stem -->
    <path d="M 122 102 C 140 95, 165 85, 185 75"/>
    <!-- Leaf 1 (large) -->
    <path d="M 145 80 C 140 65, 145 50, 160 50 C 170 55, 168 70, 158 80 C 152 85, 148 85, 145 80 Z"/>
    <!-- Leaf veins -->
    <path d="M 152 82 C 156 75, 160 68, 162 60"/>
    <!-- Leaf 2 -->
    <path d="M 165 75 C 175 65, 188 65, 190 75 C 185 82, 175 82, 165 75 Z"/>
    <path d="M 170 75 C 178 73, 184 73, 188 75"/>
    <!-- Small leaf -->
    <path d="M 130 95 C 125 88, 128 80, 135 82 C 138 88, 135 95, 130 95 Z"/>
  </g>
</svg>