<svg xmlns="http://www.w3.org/2000/svg" viewBox="0 0 200 200" width="100%" height="100%">
  <g fill="none" stroke="#5F6E26" stroke-width="2.5" stroke-linecap="round" stroke-linejoin="round">
    <!-- Left boot -->
    <!-- Boot body -->
    <path d="M 30 50 L 30 130 C 30 138, 32 145, 35 150 L 75 150 C 78 145, 80 138, 80 130 L 80 145 L 95 165 C 95 170, 90 172, 85 172 L 25 172 C 20 172, 18 168, 18 162 L 30 130"/>
    <!-- Boot cuff/top -->
    <path d="M 30 50 C 35 48, 45 47, 55 47 C 65 47, 75 48, 80 50"/>
    <path d="M 30 58 C 40 56, 70 56, 80 58"/>
    <!-- Sole -->
    <path d="M 18 162 L 22 168 L 92 168 L 95 162"/>
    <!-- Heel detail -->
    <path d="M 80 140 L 92 158"/>
    
    <!-- Right boot -->
    <!-- Boot body -->
    <path d="M 120 50 L 120 130 C 120 138, 122 145, 125 150 L 165 150 C 168 145, 170 138, 170 130 L 170 145 L 185 165 C 185 170, 180 172, 175 172 L 115 172 C 110 172, 108 168, 108 162 L 120 130"/>
    <!-- Boot cuff/top -->
    <path d="M 120 50 C 125 48, 135 47, 145 47 C 155 47, 165 48, 170 50"/>
    <path d="M 120 58 C 130 56, 160 56, 170 58"/>
    <!-- Sole -->
    <path d="M 108 162 L 112 168 L 182 168 L 185 162"/>
    <!-- Heel detail -->
    <path d="M 170 140 L 182 158"/>
  </g>
</svg>