<svg xmlns="http://www.w3.org/2000/svg" viewBox="0 0 200 200" width="100%" height="100%">
  <g fill="none" stroke="#5F6E26" stroke-width="2.5" stroke-linecap="round" stroke-linejoin="round">
    <!-- Body/foot base -->
    <path d="M 30 145 C 28 152, 32 158, 40 158 L 165 158 C 170 158, 172 153, 168 148 C 162 145, 145 144, 130 145"/>
    <!-- Head/neck -->
    <path d="M 165 158 C 172 152, 178 145, 178 138 C 178 130, 173 125, 165 128 C 158 130, 155 135, 158 145"/>
    <!-- Eye stalks -->
    <path d="M 170 130 C 172 122, 175 115, 178 110"/>
    <path d="M 165 132 C 165 125, 162 118, 160 115"/>
    <circle cx="178" cy="108" r="2"/>
    <circle cx="160" cy="113" r="2"/>
    <!-- Mouth -->
    <path d="M 175 145 C 175 148, 172 150, 170 148"/>
    <!-- Shell - spiral -->
    <circle cx="85" cy="115" r="42"/>
    <circle cx="85" cy="115" r="32"/>
    <circle cx="87" cy="113" r="22"/>
    <circle cx="89" cy="111" r="13"/>
    <circle cx="90" cy="110" r="6"/>
    <!-- Shell to body connection -->
    <path d="M 50 145 C 48 148, 48 152, 52 155"/>
    <path d="M 125 148 C 128 152, 130 155, 128 158"/>
  </g>
</svg>