<svg xmlns="http://www.w3.org/2000/svg" viewBox="0 0 200 200" width="100%" height="100%">
  <g fill="none" stroke="#5F6E26" stroke-width="2.5" stroke-linecap="round" stroke-linejoin="round">
    <!-- Wavy oval frame -->
    <path d="M 100 25 
             C 130 25, 155 35, 170 55
             C 175 60, 178 65, 175 72
             C 180 80, 178 92, 173 100
             C 178 110, 175 125, 170 135
             C 173 145, 168 158, 158 165
             C 152 175, 138 180, 125 178
             C 115 182, 95 182, 80 178
             C 65 182, 50 175, 42 165
             C 32 158, 28 145, 30 135
             C 25 125, 22 110, 28 100
             C 22 92, 25 80, 30 72
             C 22 65, 28 55, 35 50
             C 42 38, 55 30, 70 28
             C 80 22, 90 22, 100 25 Z"/>
    <!-- Bow at top -->
    <path d="M 90 35 C 80 28, 70 30, 70 38 C 75 42, 88 40, 90 35 Z"/>
    <path d="M 110 35 C 120 28, 130 30, 130 38 C 125 42, 112 40, 110 35 Z"/>
    <path d="M 95 35 L 95 45 L 105 45 L 105 35 Z"/>
    <!-- Bow tails -->
    <path d="M 95 45 C 90 55, 88 65, 92 72"/>
    <path d="M 105 45 C 110 55, 112 65, 108 72"/>
  </g>
</svg>