<svg xmlns="http://www.w3.org/2000/svg" viewBox="0 0 200 200" width="100%" height="100%">
  <g fill="none" stroke="#5F6E26" stroke-width="2.5" stroke-linecap="round" stroke-linejoin="round">
    <!-- Tray/bucket -->
    <path d="M 30 70 L 50 110 L 145 110 L 165 70 Z"/>
    <!-- Tray inner rim -->
    <path d="M 40 75 L 55 105 L 140 105 L 155 75"/>
    <!-- Front edge of tray (curve) -->
    <path d="M 30 70 C 50 65, 100 60, 165 70"/>
    <!-- Handles - left -->
    <path d="M 30 70 L 18 60 C 15 58, 12 60, 12 64 C 12 68, 14 70, 18 70 L 32 78"/>
    <!-- Handles - right -->
    <path d="M 165 70 L 180 60 C 183 58, 186 60, 186 64 C 186 68, 184 70, 180 70 L 168 78"/>
    <!-- Support legs -->
    <path d="M 50 110 L 55 145 C 55 150, 60 152, 65 150 L 65 145 L 60 110"/>
    <path d="M 140 110 L 135 145 C 135 150, 130 152, 125 150 L 125 145 L 130 110"/>
    <!-- Wheel support coming from front -->
    <path d="M 80 105 L 95 145"/>
    <!-- Wheel -->
    <circle cx="98" cy="155" r="22"/>
    <circle cx="98" cy="155" r="6"/>
    <!-- Wheel spokes -->
    <path d="M 98 138 L 98 172"/>
    <path d="M 81 155 L 115 155"/>
    <path d="M 86 143 L 110 167"/>
    <path d="M 110 143 L 86 167"/>
  </g>
</svg>