<svg xmlns="http://www.w3.org/2000/svg" viewBox="0 0 200 200" width="100%" height="100%">
  <g fill="none" stroke="currentColor" stroke-width="2.5" stroke-linecap="round" stroke-linejoin="round">
    <!-- Outer shape -->
    <path d="M 60 95 C 55 75, 70 50, 100 45 C 130 50, 145 75, 140 100 C 145 130, 130 160, 100 165 C 70 160, 55 130, 60 100 Z"/>
    <!-- Layered scales/leaves - top row -->
    <path d="M 75 70 C 80 60, 90 55, 100 55 C 110 55, 120 60, 125 70"/>
    <path d="M 100 55 C 100 65, 100 70, 100 75"/>
    <!-- Second row -->
    <path d="M 65 85 C 72 78, 82 75, 88 80"/>
    <path d="M 88 80 C 92 70, 95 65, 100 70"/>
    <path d="M 100 70 C 105 65, 108 70, 112 80"/>
    <path d="M 112 80 C 118 75, 128 78, 135 85"/>
    <!-- Third row -->
    <path d="M 60 105 C 65 95, 75 92, 82 100"/>
    <path d="M 82 100 C 88 92, 95 90, 100 95"/>
    <path d="M 100 95 C 105 90, 112 92, 118 100"/>
    <path d="M 118 100 C 125 92, 135 95, 140 105"/>
    <!-- Fourth row -->
    <path d="M 62 125 C 68 115, 78 112, 85 120"/>
    <path d="M 85 120 C 92 112, 98 110, 100 115"/>
    <path d="M 100 115 C 102 110, 108 112, 115 120"/>
    <path d="M 115 120 C 122 112, 132 115, 138 125"/>
    <!-- Bottom row -->
    <path d="M 70 145 C 78 138, 88 138, 95 145"/>
    <path d="M 95 145 C 100 140, 105 140, 110 145"/>
    <path d="M 110 145 C 118 138, 128 140, 135 148"/>
    <!-- Stem -->
    <path d="M 100 165 C 100 175, 100 185, 100 195"/>
  </g>
</svg>