<svg xmlns="http://www.w3.org/2000/svg" viewBox="0 0 200 200" width="100%" height="100%">
  <g fill="none" stroke="#5F6E26" stroke-width="2.5" stroke-linecap="round" stroke-linejoin="round">
    <!-- Beet bulb (round with point) -->
    <path d="M 60 95 C 50 105, 50 130, 65 145 C 80 158, 100 162, 115 158 C 132 152, 142 135, 138 115 C 132 100, 115 92, 100 92 C 85 90, 70 92, 60 95 Z"/>
    <!-- Pointed tail at bottom -->
    <path d="M 95 158 C 95 168, 92 175, 88 178"/>
    <path d="M 95 178 C 92 182, 90 185, 88 188"/>
    <!-- Side roots -->
    <path d="M 80 155 C 75 162, 72 168, 70 172"/>
    <path d="M 110 158 C 113 165, 115 170, 115 175"/>
    <!-- Top with leaves -->
    <!-- Stem 1 -->
    <path d="M 80 95 C 75 78, 70 60, 60 45"/>
    <!-- Leaf 1 -->
    <path d="M 60 45 C 55 35, 45 30, 40 35 C 45 45, 55 52, 62 50 C 65 48, 62 45, 60 45 Z"/>
    <path d="M 48 38 C 53 38, 58 42, 60 45"/>
    <!-- Stem 2 -->
    <path d="M 90 90 C 88 70, 88 50, 90 30"/>
    <!-- Leaf 2 -->
    <path d="M 90 30 C 82 22, 75 22, 75 30 C 80 38, 92 35, 92 30 Z"/>
    <path d="M 78 30 C 84 30, 88 30, 90 30"/>
    <!-- Stem 3 -->
    <path d="M 105 90 C 108 70, 110 50, 108 28"/>
    <!-- Leaf 3 (largest) -->
    <path d="M 108 28 C 100 20, 95 18, 95 25 C 100 32, 110 32, 110 25 Z"/>
    <path d="M 108 28 C 115 22, 122 22, 122 30 C 118 35, 110 32, 108 28 Z"/>
    <path d="M 100 25 C 105 25, 112 25, 115 27"/>
    <!-- Stem 4 -->
    <path d="M 118 95 C 122 78, 130 60, 138 48"/>
    <!-- Leaf 4 -->
    <path d="M 138 48 C 145 40, 152 42, 152 50 C 145 55, 138 52, 138 48 Z"/>
    <path d="M 142 48 C 145 48, 150 48, 152 50"/>
    <!-- Highlight curve on body -->
    <path d="M 70 110 C 65 125, 68 145, 78 152"/>
  </g>
</svg>