<svg xmlns="http://www.w3.org/2000/svg" viewBox="0 0 200 200" width="100%" height="100%">
  <g fill="none" stroke="#5F6E26" stroke-width="2.5" stroke-linecap="round" stroke-linejoin="round">
    <!-- Base/stem -->
    <path d="M 75 165 C 80 158, 90 155, 100 155 C 110 155, 120 158, 125 165 C 122 172, 110 175, 100 175 C 90 175, 78 172, 75 165 Z"/>
    <!-- Center leaf -->
    <path d="M 100 155 C 92 130, 92 100, 100 60 C 108 100, 108 130, 100 155"/>
    <path d="M 100 80 C 100 100, 100 130, 100 150"/>
    <!-- Left leaf -->
    <path d="M 85 158 C 70 140, 60 110, 65 75 C 75 85, 80 110, 88 145"/>
    <path d="M 78 130 C 75 115, 73 100, 75 90"/>
    <!-- Right leaf -->
    <path d="M 115 158 C 130 140, 140 110, 135 75 C 125 85, 120 110, 112 145"/>
    <path d="M 122 130 C 125 115, 127 100, 125 90"/>
    <!-- Outer left leaf -->
    <path d="M 78 162 C 55 150, 40 120, 42 90 C 52 105, 60 130, 78 155"/>
    <!-- Outer right leaf -->
    <path d="M 122 162 C 145 150, 160 120, 158 90 C 148 105, 140 130, 122 155"/>
    <!-- Curly tops -->
    <path d="M 65 75 C 60 70, 55 70, 50 75"/>
    <path d="M 100 60 C 95 55, 95 50, 100 48 C 105 50, 105 55, 100 60"/>
    <path d="M 135 75 C 140 70, 145 70, 150 75"/>
  </g>
</svg>