<svg xmlns="http://www.w3.org/2000/svg" viewBox="0 0 200 200" width="100%" height="100%">
  <g fill="none" stroke="currentColor" stroke-width="2.5" stroke-linecap="round" stroke-linejoin="round">
    <!-- Stem -->
    <path d="M 85 165 L 80 130 L 120 130 L 115 165 Z"/>
    <!-- Stem horizontal lines -->
    <path d="M 82 145 C 92 147, 108 147, 118 145"/>
    <path d="M 83 155 C 92 157, 108 157, 117 155"/>
    <!-- Top main florets - left bunch -->
    <path d="M 50 100 C 42 95, 38 80, 48 70 C 55 65, 65 65, 70 72 C 78 68, 88 72, 88 82 C 92 90, 88 100, 80 102 C 75 108, 65 110, 58 105 C 52 105, 48 102, 50 100 Z"/>
    <!-- Right bunch -->
    <path d="M 110 100 C 105 105, 115 110, 122 105 C 130 105, 142 102, 145 95 C 152 92, 155 80, 145 72 C 138 68, 128 70, 122 75 C 115 70, 105 75, 105 85 C 100 90, 102 100, 110 100 Z"/>
    <!-- Center top floret -->
    <path d="M 80 80 C 75 70, 78 55, 90 50 C 100 48, 110 52, 115 60 C 120 70, 118 80, 110 85 C 100 88, 88 88, 80 80 Z"/>
    <!-- Small bumps/florets texture -->
    <circle cx="55" cy="85" r="4"/>
    <circle cx="65" cy="80" r="4"/>
    <circle cx="75" cy="92" r="4"/>
    <circle cx="58" cy="98" r="3"/>
    <circle cx="92" cy="62" r="4"/>
    <circle cx="100" cy="58" r="4"/>
    <circle cx="108" cy="65" r="4"/>
    <circle cx="92" cy="72" r="3"/>
    <circle cx="105" cy="75" r="4"/>
    <circle cx="120" cy="85" r="4"/>
    <circle cx="130" cy="80" r="4"/>
    <circle cx="138" cy="85" r="4"/>
    <circle cx="125" cy="95" r="3"/>
    <circle cx="135" cy="95" r="3"/>
    <!-- Connecting lines stem to florets -->
    <path d="M 90 130 C 88 122, 82 115, 75 110"/>
    <path d="M 95 130 C 95 120, 95 110, 95 100"/>
    <path d="M 105 130 C 108 122, 115 115, 122 110"/>
  </g>
</svg>