<svg xmlns="http://www.w3.org/2000/svg" viewBox="0 0 200 200" width="100%" height="100%">
  <g fill="none" stroke="currentColor" stroke-width="2.5" stroke-linecap="round" stroke-linejoin="round">
    <!-- Carrot body -->
    <path d="M 70 75 C 65 95, 75 130, 90 160 C 100 175, 110 178, 118 165 C 130 140, 138 105, 132 80 C 125 70, 100 68, 70 75 Z"/>
    <!-- Horizontal lines on carrot -->
    <path d="M 75 90 C 88 92, 105 92, 125 88"/>
    <path d="M 78 105 C 92 108, 108 108, 125 103"/>
    <path d="M 82 122 C 95 125, 110 124, 122 120"/>
    <path d="M 88 140 C 100 142, 112 140, 118 137"/>
    <!-- Greens -->
    <path d="M 75 75 C 70 60, 60 50, 50 45 C 55 60, 62 70, 75 75"/>
    <path d="M 85 72 C 80 55, 78 38, 80 25 C 88 38, 92 55, 90 72"/>
    <path d="M 100 70 C 102 55, 110 40, 120 30 C 118 50, 110 65, 105 72"/>
    <path d="M 115 72 C 122 60, 135 55, 148 55 C 138 65, 128 72, 120 75"/>
    <path d="M 105 72 C 108 60, 115 50, 125 48"/>
  </g>
</svg>