<svg xmlns="http://www.w3.org/2000/svg" viewBox="0 0 200 200" width="100%" height="100%">
  <g fill="none" stroke="#5F6E26" stroke-width="2.5" stroke-linecap="round" stroke-linejoin="round">
    <!-- Stems meeting at top -->
    <path d="M 100 30 C 100 35, 100 40, 100 42"/>
    <!-- Left stem -->
    <path d="M 100 42 C 90 50, 75 65, 65 85 C 60 95, 60 105, 65 110"/>
    <!-- Right stem -->
    <path d="M 100 42 C 110 50, 125 65, 135 85 C 140 95, 140 105, 135 110"/>
    <!-- Left cherry -->
    <path d="M 65 110 C 50 110, 38 122, 38 138 C 38 155, 52 168, 70 168 C 88 168, 100 155, 98 138 C 98 122, 85 112, 65 110 Z"/>
    <!-- Left cherry highlight -->
    <path d="M 50 130 C 48 138, 50 148, 55 155"/>
    <!-- Left cherry tiny dimple -->
    <path d="M 65 113 C 65 118, 67 120, 70 120"/>
    <!-- Right cherry -->
    <path d="M 135 110 C 150 110, 162 122, 162 138 C 162 155, 148 168, 130 168 C 112 168, 100 155, 102 138 C 102 122, 115 112, 135 110 Z"/>
    <!-- Right cherry highlight -->
    <path d="M 150 130 C 152 138, 150 148, 145 155"/>
    <!-- Right cherry dimple -->
    <path d="M 135 113 C 135 118, 133 120, 130 120"/>
    <!-- Leaf -->
    <path d="M 100 42 C 110 35, 122 32, 130 38 C 132 45, 125 52, 115 52 C 108 52, 102 48, 100 42 Z"/>
    <!-- Leaf vein -->
    <path d="M 102 45 C 112 45, 122 42, 128 40"/>
  </g>
</svg>