<svg xmlns="http://www.w3.org/2000/svg" viewBox="0 0 200 200" width="100%" height="100%">
  <g fill="none" stroke="#5F6E26" stroke-width="2.5" stroke-linecap="round" stroke-linejoin="round">
    <!-- Corn cob body -->
    <path d="M 90 40 C 75 50, 70 75, 72 110 C 73 135, 80 160, 95 175 C 110 178, 122 165, 128 145 C 134 120, 132 85, 122 60 C 115 45, 102 38, 90 40 Z"/>
    <!-- Husk left -->
    <path d="M 90 40 C 75 30, 60 35, 55 55 C 52 75, 60 100, 72 115"/>
    <path d="M 70 55 C 62 70, 60 90, 68 105"/>
    <!-- Husk right -->
    <path d="M 122 60 C 135 50, 150 60, 152 85 C 153 110, 142 130, 128 140"/>
    <path d="M 138 75 C 145 90, 145 110, 138 125"/>
    <!-- Corn kernels - rows of small ovals -->
    <ellipse cx="88" cy="65" rx="4" ry="5"/>
    <ellipse cx="100" cy="62" rx="4" ry="5"/>
    <ellipse cx="112" cy="68" rx="4" ry="5"/>
    <ellipse cx="85" cy="80" rx="4" ry="5"/>
    <ellipse cx="98" cy="78" rx="4" ry="5"/>
    <ellipse cx="111" cy="82" rx="4" ry="5"/>
    <ellipse cx="122" cy="85" rx="4" ry="5"/>
    <ellipse cx="84" cy="95" rx="4" ry="5"/>
    <ellipse cx="97" cy="93" rx="4" ry="5"/>
    <ellipse cx="110" cy="96" rx="4" ry="5"/>
    <ellipse cx="123" cy="100" rx="4" ry="5"/>
    <ellipse cx="85" cy="110" rx="4" ry="5"/>
    <ellipse cx="98" cy="108" rx="4" ry="5"/>
    <ellipse cx="111" cy="112" rx="4" ry="5"/>
    <ellipse cx="124" cy="115" rx="4" ry="5"/>
    <ellipse cx="88" cy="125" rx="4" ry="5"/>
    <ellipse cx="101" cy="125" rx="4" ry="5"/>
    <ellipse cx="114" cy="128" rx="4" ry="5"/>
    <ellipse cx="92" cy="140" rx="4" ry="5"/>
    <ellipse cx="105" cy="140" rx="4" ry="5"/>
    <ellipse cx="115" cy="142" rx="4" ry="5"/>
    <ellipse cx="98" cy="155" rx="4" ry="5"/>
    <ellipse cx="110" cy="155" rx="4" ry="5"/>
  </g>
</svg>