<svg xmlns="http://www.w3.org/2000/svg" viewBox="0 0 200 200" width="100%" height="100%">
  <g fill="none" stroke="#5F6E26" stroke-width="2.5" stroke-linecap="round" stroke-linejoin="round">
    <!-- Cucumber body -->
    <path d="M 30 90 C 28 78, 38 70, 55 72 C 80 75, 110 82, 140 92 C 160 100, 172 110, 170 122 C 165 132, 150 132, 130 128 C 100 120, 70 110, 50 102 C 35 98, 28 95, 30 90 Z"/>
    <!-- Bumps/warts on cucumber -->
    <circle cx="50" cy="85" r="2"/>
    <circle cx="65" cy="83" r="2"/>
    <circle cx="80" cy="85" r="2"/>
    <circle cx="95" cy="88" r="2"/>
    <circle cx="110" cy="92" r="2"/>
    <circle cx="125" cy="95" r="2"/>
    <circle cx="140" cy="100" r="2"/>
    <circle cx="155" cy="105" r="2"/>
    <circle cx="55" cy="100" r="2"/>
    <circle cx="75" cy="100" r="2"/>
    <circle cx="100" cy="105" r="2"/>
    <circle cx="125" cy="115" r="2"/>
    <circle cx="148" cy="120" r="2"/>
    <!-- Stem end -->
    <path d="M 30 88 C 22 85, 18 80, 20 75"/>
    <!-- Tiny leaves at stem -->
    <path d="M 22 78 C 18 72, 15 70, 12 75 C 16 78, 20 80, 22 78 Z"/>
  </g>
</svg>