<svg xmlns="http://www.w3.org/2000/svg" viewBox="0 0 200 200" width="100%" height="100%">
  <g fill="none" stroke="currentColor" stroke-width="2.5" stroke-linecap="round" stroke-linejoin="round">
    <!-- Eggplant body -->
    <path d="M 70 70 C 55 85, 45 105, 48 130 C 52 155, 75 175, 105 175 C 135 175, 155 155, 155 128 C 153 100, 138 80, 120 72 C 105 65, 85 65, 70 70 Z"/>
    <!-- Stem cap -->
    <path d="M 80 72 C 75 60, 78 50, 88 45 C 95 42, 105 42, 115 45 C 125 50, 130 60, 122 72"/>
    <path d="M 88 60 C 90 55, 95 52, 100 53"/>
    <path d="M 110 55 C 112 50, 117 50, 120 55"/>
    <!-- Top stem -->
    <path d="M 100 45 C 102 35, 108 25, 118 20"/>
    <!-- Highlight curve -->
    <path d="M 75 95 C 70 110, 70 130, 80 145"/>
  </g>
</svg>