<svg xmlns="http://www.w3.org/2000/svg" viewBox="0 0 200 200" width="100%" height="100%">
  <g fill="none" stroke="currentColor" stroke-width="2.5" stroke-linecap="round" stroke-linejoin="round">
    <!-- Lower white stalk -->
    <path d="M 80 100 L 80 165"/>
    <path d="M 120 100 L 120 165"/>
    <path d="M 80 165 C 90 168, 110 168, 120 165"/>
    <!-- Roots -->
    <path d="M 88 167 C 87 175, 87 182, 86 188"/>
    <path d="M 95 168 C 95 176, 95 184, 94 190"/>
    <path d="M 100 168 C 100 178, 100 188, 100 195"/>
    <path d="M 105 168 C 105 176, 106 184, 107 190"/>
    <path d="M 112 167 C 113 175, 113 182, 114 188"/>
    <!-- Horizontal lines on white part -->
    <path d="M 80 115 C 95 117, 105 117, 120 115"/>
    <path d="M 80 130 C 95 132, 105 132, 120 130"/>
    <path d="M 80 145 C 95 147, 105 147, 120 145"/>
    <!-- Transition area -->
    <path d="M 80 100 C 75 95, 70 90, 65 88"/>
    <path d="M 120 100 C 125 95, 130 90, 135 88"/>
    <!-- Long green leaves bending -->
    <path d="M 65 88 C 50 80, 35 60, 30 35"/>
    <path d="M 75 92 C 60 75, 50 50, 50 25"/>
    <path d="M 85 90 C 80 65, 80 40, 85 18"/>
    <path d="M 100 88 C 100 60, 102 35, 105 12"/>
    <path d="M 115 90 C 120 65, 122 40, 118 18"/>
    <path d="M 125 92 C 138 75, 148 50, 152 25"/>
    <path d="M 135 88 C 150 80, 165 60, 170 35"/>
    <!-- Leaf pointed tips -->
    <path d="M 28 38 C 30 35, 32 33, 32 30"/>
    <path d="M 50 28 C 50 25, 51 22, 52 20"/>
    <path d="M 86 22 C 86 18, 85 14, 85 12"/>
    <path d="M 105 16 C 105 12, 105 10, 104 8"/>
    <path d="M 117 22 C 117 18, 117 14, 116 12"/>
    <path d="M 152 28 C 152 25, 151 22, 150 20"/>
    <path d="M 170 38 C 168 35, 168 33, 168 30"/>
  </g>
</svg>