<svg xmlns="http://www.w3.org/2000/svg" viewBox="0 0 200 200" width="100%" height="100%">
  <g fill="none" stroke="currentColor" stroke-width="2.5" stroke-linecap="round" stroke-linejoin="round">
    <!-- Outer rind -->
    <circle cx="100" cy="100" r="68"/>
    <!-- Inner rind line -->
    <circle cx="100" cy="100" r="58"/>
    <!-- Center point -->
    <circle cx="100" cy="100" r="4"/>
    <!-- Segment dividers (8 segments) -->
    <path d="M 100 42 L 100 158"/>
    <path d="M 42 100 L 158 100"/>
    <path d="M 59 59 L 141 141"/>
    <path d="M 141 59 L 59 141"/>
    <!-- Segment curves (subtle inner curves to suggest pulp) -->
    <path d="M 100 50 C 105 65, 105 85, 100 95"/>
    <path d="M 100 50 C 95 65, 95 85, 100 95"/>
    <path d="M 100 150 C 105 135, 105 115, 100 105"/>
    <path d="M 100 150 C 95 135, 95 115, 100 105"/>
    <path d="M 50 100 C 65 95, 85 95, 95 100"/>
    <path d="M 50 100 C 65 105, 85 105, 95 100"/>
    <path d="M 150 100 C 135 95, 115 95, 105 100"/>
    <path d="M 150 100 C 135 105, 115 105, 105 100"/>
    <!-- Corner segments -->
    <path d="M 65 65 C 75 75, 90 88, 95 95"/>
    <path d="M 65 65 C 75 70, 85 78, 92 88"/>
    <path d="M 135 65 C 125 75, 110 88, 105 95"/>
    <path d="M 65 135 C 75 125, 90 112, 95 105"/>
    <path d="M 135 135 C 125 125, 110 112, 105 105"/>
  </g>
</svg>