<svg xmlns="http://www.w3.org/2000/svg" viewBox="0 0 200 200" width="100%" height="100%">
  <g fill="none" stroke="currentColor" stroke-width="2.5" stroke-linecap="round" stroke-linejoin="round">
    <!-- Main leaf shape - curly lettuce -->
    <path d="M 50 110 C 35 90, 38 55, 65 38 C 90 28, 125 32, 150 50 C 165 70, 168 100, 155 130 C 138 150, 105 158, 75 148 C 60 140, 48 125, 50 110 Z"/>
    <!-- Curly edge top -->
    <path d="M 65 38 C 68 32, 72 32, 75 38"/>
    <path d="M 80 32 C 83 26, 88 26, 90 32"/>
    <path d="M 95 30 C 98 24, 103 24, 105 30"/>
    <path d="M 110 30 C 113 24, 118 24, 120 30"/>
    <path d="M 125 33 C 128 28, 133 28, 135 35"/>
    <!-- Curly edge right -->
    <path d="M 150 50 C 156 53, 158 58, 155 62"/>
    <path d="M 162 65 C 168 68, 170 74, 167 78"/>
    <path d="M 168 88 C 172 93, 172 99, 168 102"/>
    <path d="M 167 112 C 170 117, 168 123, 162 125"/>
    <!-- Curly edge bottom -->
    <path d="M 150 138 C 153 144, 148 148, 142 145"/>
    <path d="M 130 152 C 132 158, 125 162, 120 158"/>
    <path d="M 105 158 C 105 165, 98 167, 95 162"/>
    <path d="M 80 152 C 78 158, 72 158, 70 152"/>
    <!-- Curly edge left -->
    <path d="M 55 135 C 50 138, 45 135, 45 130"/>
    <path d="M 42 115 C 36 115, 33 110, 38 105"/>
    <path d="M 38 90 C 32 90, 30 84, 35 80"/>
    <path d="M 38 65 C 33 62, 33 55, 40 53"/>
    <!-- Center vein -->
    <path d="M 75 145 C 85 130, 95 110, 100 90 C 105 70, 108 50, 105 35"/>
    <!-- Side veins -->
    <path d="M 95 100 C 110 95, 130 88, 145 82"/>
    <path d="M 95 100 C 80 100, 65 95, 55 90"/>
    <path d="M 100 80 C 115 75, 130 68, 142 60"/>
    <path d="M 100 80 C 85 78, 70 72, 60 65"/>
    <path d="M 102 60 C 115 55, 128 48, 138 42"/>
    <path d="M 102 60 C 88 55, 75 48, 68 42"/>
  </g>
</svg>