<svg xmlns="http://www.w3.org/2000/svg" viewBox="0 0 200 200" width="100%" height="100%">
  <g fill="none" stroke="#5F6E26" stroke-width="2.5" stroke-linecap="round" stroke-linejoin="round">
    <!-- Mushroom cap -->
    <path d="M 30 95 C 30 65, 60 40, 100 40 C 140 40, 170 65, 170 95 C 170 100, 165 105, 158 105 L 42 105 C 35 105, 30 100, 30 95 Z"/>
    <!-- Cap inner curve -->
    <path d="M 42 100 C 70 95, 130 95, 158 100"/>
    <!-- Spots on cap -->
    <ellipse cx="65" cy="65" rx="8" ry="6"/>
    <ellipse cx="100" cy="55" rx="9" ry="7"/>
    <ellipse cx="135" cy="68" rx="8" ry="6"/>
    <ellipse cx="80" cy="80" rx="6" ry="5"/>
    <ellipse cx="120" cy="83" rx="6" ry="5"/>
    <!-- Stem -->
    <path d="M 80 105 L 80 165 C 80 172, 88 175, 100 175 C 112 175, 120 172, 120 165 L 120 105"/>
    <!-- Stem ring/skirt -->
    <path d="M 75 130 L 125 130"/>
    <path d="M 75 130 C 72 132, 72 138, 75 140"/>
    <path d="M 125 130 C 128 132, 128 138, 125 140"/>
    <path d="M 75 140 L 125 140"/>
    <!-- Bottom of stem (gills suggestion) -->
    <path d="M 85 105 L 85 110"/>
    <path d="M 95 105 L 95 110"/>
    <path d="M 105 105 L 105 110"/>
    <path d="M 115 105 L 115 110"/>
  </g>
</svg>