<svg xmlns="http://www.w3.org/2000/svg" viewBox="0 0 200 200" width="100%" height="100%">
  <g fill="none" stroke="#5F6E26" stroke-width="2.5" stroke-linecap="round" stroke-linejoin="round">
    <!-- Pod outer -->
    <path d="M 30 105 C 35 85, 60 75, 100 80 C 140 75, 165 85, 170 105 C 165 125, 140 135, 100 130 C 60 135, 35 125, 30 105 Z"/>
    <!-- Pod top edge -->
    <path d="M 35 100 C 60 90, 90 88, 100 88 C 110 88, 140 90, 165 100"/>
    <!-- Stem at end -->
    <path d="M 30 105 C 25 102, 22 98, 20 92 C 22 90, 25 92, 28 95"/>
    <!-- Curl/tendril -->
    <path d="M 22 92 C 18 88, 15 82, 18 78 C 22 78, 24 82, 22 88"/>
    <!-- Peas inside -->
    <circle cx="55" cy="105" r="9"/>
    <circle cx="80" cy="105" r="10"/>
    <circle cx="105" cy="105" r="10"/>
    <circle cx="130" cy="105" r="10"/>
    <circle cx="153" cy="105" r="9"/>
    <!-- Highlight on peas -->
    <path d="M 50 100 C 52 102, 53 104, 52 106"/>
    <path d="M 75 100 C 77 102, 78 104, 77 106"/>
    <path d="M 100 100 C 102 102, 103 104, 102 106"/>
    <path d="M 125 100 C 127 102, 128 104, 127 106"/>
    <path d="M 148 100 C 150 102, 151 104, 150 106"/>
  </g>
</svg>