<svg xmlns="http://www.w3.org/2000/svg" viewBox="0 0 200 200" width="100%" height="100%">
  <g fill="none" stroke="currentColor" stroke-width="2.5" stroke-linecap="round" stroke-linejoin="round">
    <!-- Pear body -->
    <path d="M 100 50 C 92 55, 88 65, 87 78 C 82 88, 75 100, 70 115 C 60 135, 55 160, 75 175 C 100 185, 130 180, 142 165 C 148 145, 142 125, 130 110 C 122 98, 115 90, 113 78 C 112 65, 108 55, 100 50 Z"/>
    <!-- Stem -->
    <path d="M 100 50 C 100 42, 98 35, 95 30"/>
    <!-- Leaf -->
    <path d="M 95 35 C 105 28, 118 28, 122 35 C 120 45, 110 50, 100 45 C 97 42, 95 38, 95 35 Z"/>
    <!-- Leaf vein -->
    <path d="M 98 38 C 108 38, 118 36, 120 35"/>
    <!-- Highlight curves on body -->
    <path d="M 80 100 C 75 115, 72 135, 78 155"/>
    <!-- Bottom dimple -->
    <path d="M 95 175 C 100 178, 105 178, 110 175"/>
  </g>
</svg>