<svg xmlns="http://www.w3.org/2000/svg" viewBox="0 0 200 200" width="100%" height="100%">
  <g fill="none" stroke="#5F6E26" stroke-width="2.5" stroke-linecap="round" stroke-linejoin="round">
    <!-- Pepper body (bell pepper) -->
    <path d="M 65 70 C 55 80, 50 100, 52 130 C 55 155, 70 175, 95 178 C 120 180, 140 170, 148 150 C 152 130, 150 105, 142 85 C 135 75, 120 70, 105 72 C 95 68, 78 68, 65 70 Z"/>
    <!-- Bottom curves (pepper lobes) -->
    <path d="M 70 165 C 75 155, 80 150, 85 158"/>
    <path d="M 100 175 C 100 165, 105 158, 110 165"/>
    <path d="M 130 168 C 130 158, 135 152, 138 158"/>
    <!-- Top depression -->
    <path d="M 80 75 C 88 78, 95 80, 100 78 C 110 80, 120 78, 130 75"/>
    <!-- Stem cap -->
    <path d="M 88 70 C 85 60, 90 50, 100 48 C 110 50, 115 60, 112 70"/>
    <!-- Top stem -->
    <path d="M 100 48 C 100 38, 102 28, 105 22"/>
    <path d="M 105 22 C 108 25, 110 28, 110 32"/>
    <!-- Body shading line -->
    <path d="M 70 100 C 65 120, 65 145, 75 160"/>
  </g>
</svg>