<svg xmlns="http://www.w3.org/2000/svg" viewBox="0 0 200 200" width="100%" height="100%">
  <g fill="none" stroke="#5F6E26" stroke-width="2.5" stroke-linecap="round" stroke-linejoin="round">
    <!-- Plum 1 (back left) -->
    <path d="M 50 90 C 38 95, 32 110, 35 130 C 38 150, 55 162, 75 158 C 92 152, 100 135, 95 118 C 88 100, 70 92, 55 90 Z"/>
    <!-- Plum 1 cleft -->
    <path d="M 65 95 C 65 115, 65 140, 65 158"/>
    <!-- Plum 1 stem -->
    <path d="M 60 92 C 58 85, 58 78, 60 75"/>
    <!-- Leaf on plum 1 -->
    <path d="M 60 75 C 50 70, 42 72, 42 78 C 48 82, 58 80, 60 75 Z"/>
    <path d="M 48 76 C 53 76, 58 76, 60 76"/>
    
    <!-- Plum 2 (front right) -->
    <path d="M 110 105 C 100 110, 95 125, 100 145 C 105 165, 125 175, 145 168 C 162 160, 168 142, 162 125 C 155 108, 130 100, 115 105 Z"/>
    <!-- Plum 2 cleft -->
    <path d="M 130 110 C 130 130, 130 155, 130 172"/>
    <!-- Plum 2 stem -->
    <path d="M 128 105 C 128 98, 128 92, 130 88"/>
    <!-- Leaf on plum 2 -->
    <path d="M 130 88 C 142 82, 152 85, 152 92 C 145 98, 132 95, 130 88 Z"/>
    <path d="M 138 88 C 144 88, 148 88, 152 90"/>
    
    <!-- Highlight on plums -->
    <path d="M 45 110 C 42 125, 45 145, 55 152"/>
    <path d="M 105 125 C 102 140, 108 158, 118 165"/>
  </g>
</svg>