<svg xmlns="http://www.w3.org/2000/svg" viewBox="0 0 200 200" width="100%" height="100%">
  <g fill="none" stroke="#5F6E26" stroke-width="2.5" stroke-linecap="round" stroke-linejoin="round">
    <!-- Potato outline (irregular oval) -->
    <path d="M 35 105 C 28 85, 40 65, 65 58 C 90 50, 125 55, 150 65 C 170 75, 175 95, 168 115 C 160 135, 135 148, 105 148 C 75 148, 50 135, 38 120 C 35 115, 33 110, 35 105 Z"/>
    <!-- Eyes / spots on potato -->
    <ellipse cx="60" cy="90" rx="3" ry="2"/>
    <ellipse cx="85" cy="80" rx="3" ry="2"/>
    <ellipse cx="120" cy="85" rx="3" ry="2"/>
    <ellipse cx="105" cy="105" rx="3" ry="2"/>
    <ellipse cx="140" cy="100" rx="3" ry="2"/>
    <ellipse cx="75" cy="120" rx="3" ry="2"/>
    <ellipse cx="115" cy="125" rx="3" ry="2"/>
    <ellipse cx="150" cy="125" rx="3" ry="2"/>
    <!-- Tiny scratch lines for texture -->
    <path d="M 55 95 L 58 92"/>
    <path d="M 92 100 L 95 97"/>
    <path d="M 130 110 L 133 107"/>
    <path d="M 70 110 L 73 107"/>
    <path d="M 100 130 L 103 127"/>
  </g>
</svg>