<svg xmlns="http://www.w3.org/2000/svg" viewBox="0 0 200 200" width="100%" height="100%">
  <g fill="none" stroke="#5F6E26" stroke-width="2.5" stroke-linecap="round" stroke-linejoin="round">
    <!-- Three radishes bundled -->
    <!-- Left radish -->
    <path d="M 50 110 C 42 115, 38 130, 45 145 C 55 158, 70 160, 78 152 C 85 142, 82 122, 75 115 C 68 108, 58 105, 50 110 Z"/>
    <!-- Pointy tail -->
    <path d="M 60 158 C 58 165, 55 170, 50 173"/>
    <path d="M 70 160 C 70 168, 68 175, 65 180"/>
    
    <!-- Middle radish (lower) -->
    <path d="M 90 130 C 82 135, 78 150, 85 165 C 95 178, 110 180, 118 172 C 125 162, 122 142, 115 135 C 108 128, 98 125, 90 130 Z"/>
    <path d="M 100 178 C 98 185, 95 190, 90 193"/>
    <path d="M 110 180 C 110 188, 108 195, 105 197"/>
    
    <!-- Right radish -->
    <path d="M 130 110 C 122 115, 118 130, 125 145 C 135 158, 150 160, 158 152 C 165 142, 162 122, 155 115 C 148 108, 138 105, 130 110 Z"/>
    <path d="M 140 158 C 138 165, 135 170, 130 173"/>
    <path d="M 150 160 C 150 168, 148 175, 145 180"/>
    
    <!-- Tied bunch at top -->
    <path d="M 60 95 C 80 90, 130 90, 145 95 C 145 102, 130 105, 100 105 C 75 105, 60 102, 60 95 Z"/>
    <!-- Bow knot -->
    <path d="M 100 96 L 100 105"/>
    
    <!-- Leaves above -->
    <path d="M 70 90 C 65 75, 58 60, 50 50"/>
    <path d="M 80 88 C 78 70, 75 50, 75 35"/>
    <path d="M 92 85 C 92 65, 92 45, 95 25"/>
    <path d="M 100 85 C 100 60, 100 35, 105 18"/>
    <path d="M 110 88 C 112 65, 115 45, 118 25"/>
    <path d="M 122 88 C 125 70, 128 50, 130 35"/>
    <path d="M 132 90 C 138 75, 145 60, 152 50"/>
    <!-- Leaf tops with shape -->
    <path d="M 50 50 C 48 45, 50 42, 52 45"/>
    <path d="M 75 35 C 73 30, 76 28, 78 32"/>
    <path d="M 95 25 C 93 20, 96 18, 98 22"/>
    <path d="M 105 18 C 105 13, 108 12, 110 16"/>
    <path d="M 118 25 C 118 20, 122 18, 124 22"/>
    <path d="M 130 35 C 128 30, 132 28, 134 32"/>
    <path d="M 152 50 C 150 45, 154 42, 156 45"/>
  </g>
</svg>