<svg xmlns="http://www.w3.org/2000/svg" viewBox="0 0 200 200" width="100%" height="100%">
  <g fill="none" stroke="#5F6E26" stroke-width="2.5" stroke-linecap="round" stroke-linejoin="round">
    <!-- Tomato body -->
    <path d="M 60 95 C 52 115, 55 145, 75 165 C 100 180, 130 178, 150 160 C 162 140, 160 110, 145 90 C 128 75, 105 70, 85 75 C 72 80, 65 85, 60 95 Z"/>
    <!-- Top dimple -->
    <path d="M 90 80 C 95 85, 100 88, 110 86"/>
    <!-- Leaves on top -->
    <path d="M 85 75 C 78 65, 70 60, 65 65 C 70 72, 78 78, 85 75"/>
    <path d="M 100 73 C 95 60, 100 50, 110 50 C 115 60, 110 70, 100 73"/>
    <path d="M 115 75 C 125 65, 135 65, 138 72 C 130 78, 120 78, 115 75"/>
    <!-- Stem -->
    <path d="M 108 50 C 110 40, 115 32, 122 28"/>
    <!-- Highlight -->
    <path d="M 75 110 C 72 125, 75 140, 85 150"/>
  </g>
</svg>