<svg xmlns="http://www.w3.org/2000/svg" viewBox="0 0 600 40" preserveAspectRatio="none" aria-hidden="true">
  <g fill="none" stroke="currentColor" stroke-width="1.4" stroke-linecap="round" stroke-linejoin="round">
    <path d="M0 32 L600 32"/>
    <g transform="translate(60 32)"><path d="M0 0 L0 -10"/><path d="M0 -8 Q -6 -10 -7 -16"/><path d="M0 -8 Q 6 -10 7 -16"/></g>
    <g transform="translate(150 32)"><path d="M0 0 L0 -12"/><path d="M0 -10 Q -7 -12 -8 -19"/><path d="M0 -10 Q 7 -12 8 -19"/></g>
    <g transform="translate(240 32)"><path d="M0 0 L0 -10"/><path d="M0 -8 Q -6 -10 -7 -16"/><path d="M0 -8 Q 6 -10 7 -16"/></g>
    <g transform="translate(330 32)"><path d="M0 0 L0 -14"/><path d="M0 -12 Q -8 -14 -9 -21"/><path d="M0 -12 Q 8 -14 9 -21"/></g>
    <g transform="translate(420 32)"><path d="M0 0 L0 -10"/><path d="M0 -8 Q -6 -10 -7 -16"/><path d="M0 -8 Q 6 -10 7 -16"/></g>
    <g transform="translate(510 32)"><path d="M0 0 L0 -12"/><path d="M0 -10 Q -7 -12 -8 -19"/><path d="M0 -10 Q 7 -12 8 -19"/></g>
  </g>
</svg>
